<svg xmlns="http://www.w3.org/2000/svg" xmlns:xlink="http://www.w3.org/1999/xlink" fill="none" version="1.1" width="16" height="16" viewBox="0 0 16 16"><defs><clipPath id="master_svg0_8_028378"><rect x="0" y="0" width="16" height="16" rx="0"/></clipPath></defs><g clip-path="url(#master_svg0_8_028378)"><g transform="matrix(1,0,0,-1,0,30.6875)"><g><path d="M2,28.34375Q2,28.78125,1.71875,29.06255Q1.4375,29.34375,1,29.34375Q0.5625,29.34375,0.28125,29.06255Q0,28.78125,0,28.34375L0,17.84375Q0.03125,16.78125,0.71875,16.0625Q1.4375,15.375,2.5,15.34375L15,15.34375Q15.4375,15.34375,15.7188,15.625Q16,15.90625,16,16.34375Q16,16.78125,15.7188,17.0625Q15.4375,17.34375,15,17.34375L2.5,17.34375Q2.03125,17.375,2,17.84375L2,28.34375ZM14.7188,25.62495Q15,25.93755,15,26.34375Q15,26.74995,14.7188,27.06255Q14.4062,27.34375,14,27.34375Q13.5938,27.34375,13.2812,27.06255L10,23.75L8.21875,25.56255Q7.90625,25.84375,7.5,25.84375Q7.09375,25.84375,6.78125,25.56255L3.28125,22.0625Q3,21.75,3,21.34375Q3,20.9375,3.28125,20.625Q3.59375,20.34375,4,20.34375Q4.40625,20.34375,4.71875,20.625L7.5,23.4375L9.28125,21.625Q9.59375,21.34375,10,21.34375Q10.4062,21.34375,10.7188,21.625L14.7188,25.62495Z" fill="#3E5DA6" fill-opacity="1" style="mix-blend-mode:passthrough"/></g></g></g></svg>