<svg xmlns="http://www.w3.org/2000/svg" xmlns:xlink="http://www.w3.org/1999/xlink" fill="none" version="1.1" width="16" height="16" viewBox="0 0 16 16"><defs><clipPath id="master_svg0_8_028343"><rect x="0" y="0" width="16" height="16" rx="0"/></clipPath></defs><g clip-path="url(#master_svg0_8_028343)"><g transform="matrix(1,0,0,-1,0,32.6875)"><g><path d="M8,16.34375Q10.1875,16.375,12,17.40625Q13.8125,18.46875,14.9375,20.34375Q16,22.25,16,24.34375Q16,26.43755,14.9375,28.34375Q13.8125,30.21875,12,31.28125Q10.1875,32.31255,8,32.34375Q5.8125,32.31255,4,31.28125Q2.1875,30.21875,1.0625,28.34375Q0,26.43755,0,24.34375Q0,22.25,1.0625,20.34375Q2.1875,18.46875,4,17.40625Q5.8125,16.375,8,16.34375ZM7.5,29.84375Q7.9375,29.84375,8.21875,29.56255Q8.5,29.28125,8.5,28.84375Q8.5,28.40625,8.21875,28.12495Q7.9375,27.84375,7.5,27.84375Q7.0625,27.84375,6.78125,28.12495Q6.5,28.40625,6.5,28.84375Q6.5,29.28125,6.78125,29.56255Q7.0625,29.84375,7.5,29.84375ZM6.5,25.84375Q6.5,26.28125,6.78125,26.56255Q7.0625,26.84375,7.5,26.84375Q7.9375,26.84375,8.21875,26.56255Q8.5,26.28125,8.5,25.84375Q8.5,25.40625,8.21875,25.125Q7.9375,24.84375,7.5,24.84375Q7.0625,24.84375,6.78125,25.125Q6.5,25.40625,6.5,25.84375ZM4.5,27.84375Q4.9375,27.84375,5.21875,27.56255Q5.5,27.28125,5.5,26.84375Q5.5,26.40625,5.21875,26.125Q4.9375,25.84375,4.5,25.84375Q4.0625,25.84375,3.78125,26.125Q3.5,26.40625,3.5,26.84375Q3.5,27.28125,3.78125,27.56255Q4.0625,27.84375,4.5,27.84375Z" fill="#3E5DA6" fill-opacity="1" style="mix-blend-mode:passthrough"/></g></g></g></svg>