<svg xmlns="http://www.w3.org/2000/svg" xmlns:xlink="http://www.w3.org/1999/xlink" fill="none" version="1.1" width="22.5" height="20" viewBox="0 0 22.5 20"><defs><clipPath id="master_svg0_8_027363"><rect x="0" y="0" width="22.5" height="20" rx="0"/></clipPath></defs><g clip-path="url(#master_svg0_8_027363)"><g transform="matrix(1,0,0,-1,0,38.359375)"><g><path d="M12.0703,33.7890875Q12.7734,34.2577875,12.8125,35.1171875Q12.8125,35.781287500000005,12.3438,36.2108875Q11.9141,36.6796875,11.25,36.6796875Q10.5859,36.6796875,10.1562,36.2108875Q9.6875,35.781287500000005,9.6875,35.1171875Q9.72656,34.2187875,10.4297,33.7890875L8.20312,29.2968875Q7.89062,28.7890675,7.34375,28.6328075Q6.79688,28.5156275,6.28906,28.9062475L2.8125,31.6796875Q3.125,32.0702875,3.125,32.6171875Q3.125,33.2812875,2.65625,33.7108875Q2.22656,34.1796875,1.5625,34.1796875Q0.898438,34.1796875,0.46875,33.7108875Q0,33.2812875,0,32.6171875Q0,31.953087500000002,0.46875,31.5234875Q0.898438,31.0546875,1.5625,31.0546875Q1.60156,31.0546875,1.60156,31.0546875L3.35938,21.2499975Q3.55469,20.3124975,4.21875,19.7656255Q4.92188,19.1796875,5.82031,19.1796875L16.6797,19.1796875Q17.5781,19.1796875,18.2812,19.7656255Q18.9453,20.3124975,19.1406,21.2499975L20.8984,31.0546875L20.9375,31.0546875Q21.6016,31.0546875,22.0312,31.5234875Q22.5,31.953087500000002,22.5,32.6171875Q22.5,33.2812875,22.0312,33.7108875Q21.6016,34.1796875,20.9375,34.1796875Q20.2734,34.1796875,19.8438,33.7108875Q19.375,33.2812875,19.375,32.6171875Q19.375,32.0702875,19.6875,31.6796875L16.2109,28.9062475Q15.7031,28.5156275,15.1562,28.6328075Q14.6094,28.7890675,14.2969,29.2968875L12.0703,33.7890875Z" fill="#FFFFFF" fill-opacity="1" style="mix-blend-mode:passthrough"/></g></g></g></svg>