<svg xmlns="http://www.w3.org/2000/svg" xmlns:xlink="http://www.w3.org/1999/xlink" fill="none" version="1.1" width="16" height="16" viewBox="0 0 16 16"><defs><clipPath id="master_svg0_8_027631"><rect x="0" y="0" width="16" height="16" rx="0"/></clipPath></defs><g clip-path="url(#master_svg0_8_027631)"><g transform="matrix(1,0,0,-1,0,32.6875)"><g><path d="M0.125,31.15625Q0,31.34375,0,31.56255Q0.0625,32.28125,0.78125,32.34375L4.1875,32.34375Q4.75,32.31255,5.03125,31.84375L7.1875,28.28125Q4.875,27.96875,3.3125,26.34375L0.125,31.15625ZM15.875,31.15625L12.6875,26.34375L15.875,31.15625L12.6875,26.34375Q11.125,27.96875,8.8125,28.28125L10.9688,31.84375Q11.25,32.31255,11.8125,32.34375L15.2188,32.34375Q15.9375,32.28125,16,31.56255Q16,31.34375,15.875,31.15625ZM2.5,21.84375Q2.5,23.34375,3.25,24.59375Q3.96875,25.84375,5.25,26.59375Q6.5625,27.34375,8,27.34375Q9.4375,27.34375,10.75,26.59375Q12.0312,25.84375,12.75,24.59375Q13.5,23.34375,13.5,21.84375Q13.5,20.34375,12.75,19.09375Q12.0312,17.84375,10.75,17.09375Q9.4375,16.34375,8,16.34375Q6.5625,16.34375,5.25,17.09375Q3.96875,17.84375,3.25,19.09375Q2.5,20.34375,2.5,21.84375ZM8.25,24.8125Q8,25.125,7.75,24.8125L7.03125,23.375Q6.96875,23.25,6.8125,23.21875L5.25,23Q4.875,22.84375,5.09375,22.5L6.21875,21.40625Q6.3125,21.28125,6.3125,21.125L6.03125,19.59375Q6.03125,19.40625,6.15625,19.28125Q6.28125,19.1875,6.46875,19.28125L7.875,20Q8,20.0625,8.125,20L9.53125,19.28125Q9.9375,19.15625,9.96875,19.59375L9.6875,21.125Q9.65625,21.28125,9.78125,21.40625L10.9062,22.5Q11.125,22.84375,10.75,23L9.1875,23.21875Q9.03125,23.25,8.96875,23.375L8.25,24.8125Z" fill="#3E5DA6" fill-opacity="1" style="mix-blend-mode:passthrough"/></g></g></g></svg>