<svg xmlns="http://www.w3.org/2000/svg" xmlns:xlink="http://www.w3.org/1999/xlink" fill="none" version="1.1" width="16" height="16" viewBox="0 0 16 16"><defs><clipPath id="master_svg0_8_028517"><rect x="0" y="0" width="16" height="16" rx="0"/></clipPath></defs><g clip-path="url(#master_svg0_8_028517)"><g transform="matrix(1,0,0,-1,0,32.6875)"><g><path d="M8,16.34375Q10.1875,16.375,12,17.40625Q13.8125,18.46875,14.9375,20.34375Q16,22.25,16,24.34375Q16,26.43755,14.9375,28.34375Q13.8125,30.21875,12,31.28125Q10.1875,32.31255,8,32.34375Q5.8125,32.31255,4,31.28125Q2.1875,30.21875,1.0625,28.34375Q0,26.43755,0,24.34375Q0,22.25,1.0625,20.34375Q2.1875,18.46875,4,17.40625Q5.8125,16.375,8,16.34375ZM11.5312,25.8125L7.53125,21.8125L11.5312,25.8125L7.53125,21.8125Q7,21.375,6.46875,21.8125L4.46875,23.8125Q4.03125,24.34375,4.46875,24.875Q5,25.3125,5.53125,24.875L7,23.40625L10.4688,26.87495Q11,27.31255,11.5312,26.87495Q11.9688,26.34375,11.5312,25.8125Z" fill="#3E5DA6" fill-opacity="1" style="mix-blend-mode:passthrough"/></g></g></g></svg>