<svg xmlns="http://www.w3.org/2000/svg" xmlns:xlink="http://www.w3.org/1999/xlink" fill="none" version="1.1" width="21" height="32" viewBox="0 0 21 32"><defs><clipPath id="master_svg0_8_027494"><rect x="0" y="4" width="21" height="24" rx="0"/></clipPath></defs><g><rect x="0" y="0" width="21" height="32" rx="0" fill="#000000" fill-opacity="0" style="mix-blend-mode:passthrough"/><g clip-path="url(#master_svg0_8_027494)"><g transform="matrix(1,0,0,-1,0,56.75)"><g><path d="M7.125,51.25Q7.03125,52.2812,6,52.375Q4.96875,52.2812,4.875,51.25L4.875,49.375L3,49.375Q1.73438,49.3281,0.890625,48.4844Q0.046875,47.6406,0,46.375L0,45.625L0,43.375L0,31.375Q0.046875,30.10938,0.890625,29.265625Q1.73438,28.421875,3,28.375L18,28.375Q19.2656,28.421875,20.1094,29.265625Q20.9531,30.10938,21,31.375L21,43.375L21,45.625L21,46.375Q20.9531,47.6406,20.1094,48.4844Q19.2656,49.3281,18,49.375L16.125,49.375L16.125,51.25Q16.0312,52.2812,15,52.375Q13.9688,52.2812,13.875,51.25L13.875,49.375L7.125,49.375L7.125,51.25ZM2.25,43.375L6,43.375L2.25,43.375L6,43.375L6,40.75L2.25,40.75L2.25,43.375ZM2.25,38.5L6,38.5L2.25,38.5L6,38.5L6,35.5L2.25,35.5L2.25,38.5ZM8.25,38.5L12.75,38.5L8.25,38.5L12.75,38.5L12.75,35.5L8.25,35.5L8.25,38.5ZM15,38.5L18.75,38.5L15,38.5L18.75,38.5L18.75,35.5L15,35.5L15,38.5ZM18.75,40.75L15,40.75L18.75,40.75L15,40.75L15,43.375L18.75,43.375L18.75,40.75ZM18.75,33.25L18.75,31.375L18.75,33.25L18.75,31.375Q18.7031,30.67188,18,30.625L15,30.625L15,33.25L18.75,33.25ZM12.75,33.25L12.75,30.625L12.75,33.25L12.75,30.625L8.25,30.625L8.25,33.25L12.75,33.25ZM6,33.25L6,30.625L6,33.25L6,30.625L3,30.625Q2.29688,30.67188,2.25,31.375L2.25,33.25L6,33.25ZM12.75,40.75L8.25,40.75L12.75,40.75L8.25,40.75L8.25,43.375L12.75,43.375L12.75,40.75Z" fill="#3E5DA6" fill-opacity="1" style="mix-blend-mode:passthrough"/></g></g></g></g></svg>