<svg xmlns="http://www.w3.org/2000/svg" xmlns:xlink="http://www.w3.org/1999/xlink" fill="none" version="1.1" width="18" height="14.40000057220459" viewBox="0 0 18 14.40000057220459"><defs><clipPath id="master_svg0_12_56837"><rect x="0" y="0" width="18" height="14.40000057220459" rx="0"/></clipPath></defs><g clip-path="url(#master_svg0_12_56837)"><g transform="matrix(1,0,0,-1,0,29.41796875)"><g><path d="M4.05,29.108984375Q5.31563,29.080884375,5.99063,27.983984375Q6.60938,26.858984375,5.99063,25.733984375Q5.31563,24.637114375,4.05,24.608984375Q2.78438,24.637114375,2.10938,25.733984375Q1.49063,26.858984375,2.10938,27.983984375Q2.78438,29.080884375,4.05,29.108984375ZM14.4,29.108984375Q15.6656,29.080884375,16.3406,27.983984375Q16.9594,26.858984375,16.3406,25.733984375Q15.6656,24.637114375,14.4,24.608984375Q13.1344,24.637114375,12.4594,25.733984375Q11.8406,26.858984375,12.4594,27.983984375Q13.1344,29.080884375,14.4,29.108984375ZM0,20.699614375Q0.028125,21.993364375,0.871875,22.837114375Q1.71563,23.680864375,3.00938,23.708984375L4.19063,23.708984375Q4.86563,23.708984375,5.45625,23.427734375Q5.4,23.118364375,5.4,22.808984375Q5.45625,21.149614375,6.60938,20.108984375L0.590625,20.108984375Q0.05625,20.165234375,0,20.699614375ZM11.3906,20.108984375Q12.5438,21.149614375,12.6,22.808984375Q12.6,23.118364375,12.5438,23.427734375Q13.1344,23.708984375,13.8094,23.708984375L14.9906,23.708984375Q16.2844,23.680864375,17.1281,22.837114375Q17.9719,21.993364375,18,20.699614375Q17.9438,20.165234375,17.4094,20.108984375L11.3906,20.108984375ZM6.3,22.808984375Q6.3,23.540234375,6.66563,24.158984375Q7.03125,24.777784375,7.65,25.143384375Q8.29688,25.508984375,9,25.508984375Q9.70312,25.508984375,10.35,25.143384375Q10.9688,24.777784375,11.3344,24.158984375Q11.7,23.540234375,11.7,22.808984375Q11.7,22.077734375,11.3344,21.458984375Q10.9688,20.840234375,10.35,20.474604375Q9.70312,20.108984375,9,20.108984375Q8.29688,20.108984375,7.65,20.474604375Q7.03125,20.840234375,6.66563,21.458984375Q6.3,22.077734375,6.3,22.808984375ZM3.6,15.468359375Q3.62813,17.043364375,4.69688,18.112114375Q5.76562,19.180864375,7.34063,19.208984375L10.6594,19.208984375Q12.2344,19.180864375,13.3031,18.112114375Q14.3719,17.043364375,14.4,15.468359375Q14.3438,14.765234375,13.6406,14.708984375L4.35938,14.708984375Q3.65625,14.765234375,3.6,15.468359375Z" fill="#3E5DA6" fill-opacity="1" style="mix-blend-mode:passthrough"/></g></g></g></svg>