<svg xmlns="http://www.w3.org/2000/svg" xmlns:xlink="http://www.w3.org/1999/xlink" fill="none" version="1.1" width="25" height="20" viewBox="0 0 25 20"><defs><clipPath id="master_svg0_12_49521"><rect x="0" y="0" width="25" height="20" rx="0"/></clipPath></defs><g clip-path="url(#master_svg0_12_49521)"><g transform="matrix(1,0,0,-1,0,40.859375)"><g><path d="M5.625,40.4296875Q7.38281,40.390587499999995,8.32031,38.8671875Q9.17969,37.3046875,8.32031,35.7421875Q7.38281,34.2187875,5.625,34.1796875Q3.86719,34.2187875,2.92969,35.7421875Q2.07031,37.3046875,2.92969,38.8671875Q3.86719,40.390587499999995,5.625,40.4296875ZM20,40.4296875Q21.7578,40.390587499999995,22.6953,38.8671875Q23.5547,37.3046875,22.6953,35.7421875Q21.7578,34.2187875,20,34.1796875Q18.2422,34.2187875,17.3047,35.7421875Q16.4453,37.3046875,17.3047,38.8671875Q18.2422,40.390587499999995,20,40.4296875ZM0,28.7499975Q0.0390625,30.5468875,1.21094,31.718787499999998Q2.38281,32.8905875,4.17969,32.9296875L5.82031,32.9296875Q6.75781,32.9296875,7.57812,32.5390875Q7.5,32.1093875,7.5,31.6796875Q7.57812,29.3749975,9.17969,27.9296875L0.820312,27.9296875Q0.078125,28.0078075,0,28.7499975ZM15.8203,27.9296875Q17.4219,29.3749975,17.5,31.6796875Q17.5,32.1093875,17.4219,32.5390875Q18.2422,32.9296875,19.1797,32.9296875L20.8203,32.9296875Q22.6172,32.8905875,23.7891,31.718787499999998Q24.9609,30.5468875,25,28.7499975Q24.9219,28.0078075,24.1797,27.9296875L15.8203,27.9296875ZM8.75,31.6796875Q8.75,32.6952875,9.25781,33.5546875Q9.76562,34.4140875,10.625,34.9218875Q11.5234,35.4296875,12.5,35.4296875Q13.4766,35.4296875,14.375,34.9218875Q15.2344,34.4140875,15.7422,33.5546875Q16.25,32.6952875,16.25,31.6796875Q16.25,30.6640875,15.7422,29.8046875Q15.2344,28.9453075,14.375,28.4374975Q13.4766,27.9296875,12.5,27.9296875Q11.5234,27.9296875,10.625,28.4374975Q9.76562,28.9453075,9.25781,29.8046875Q8.75,30.6640875,8.75,31.6796875ZM5,21.4843775Q5.03906,23.6718775,6.52344,25.1562475Q8.00781,26.6406275,10.1953,26.6796875L14.8047,26.6796875Q16.9922,26.6406275,18.4766,25.1562475Q19.9609,23.6718775,20,21.4843775Q19.9219,20.5078125,18.9453,20.4296875L6.05469,20.4296875Q5.07812,20.5078125,5,21.4843775Z" fill="#000000" fill-opacity="1" style="mix-blend-mode:passthrough"/></g></g></g></svg>