<svg xmlns="http://www.w3.org/2000/svg" xmlns:xlink="http://www.w3.org/1999/xlink" fill="none" version="1.1" width="18" height="18" viewBox="0 0 18 18"><defs><clipPath id="master_svg0_8_027039"><rect x="0" y="0" width="18" height="18" rx="0"/></clipPath></defs><g clip-path="url(#master_svg0_8_027039)"><g transform="matrix(1,0,0,-1,0,34.52342987060547)"><g><path d="M9.034804226200581,18.386714935302734Q11.55622422620058,18.421874935302736,13.55232422620058,19.371094935302736Q15.58342422620058,20.355464935302734,16.77412422620058,22.007804935302733Q17.96472422620058,23.660154935302735,17.99982422620058,25.699214935302734Q17.96472422620058,27.738314935302732,16.77412422620058,29.390614935302736Q15.58342422620058,31.042914935302733,13.55232422620058,32.02731493530273Q11.55622422620058,32.97651493530273,9.034804226200581,33.011714935302734Q6.5134042262005805,32.97651493530273,4.517294226200581,32.02731493530273Q2.4861642262005805,31.042914935302733,1.2955042262005807,29.390614935302736Q0.1048437262005806,27.738314935302732,0.0698242262005806,25.699214935302734Q0.1048437262005806,23.273434935302735,1.7507542262005806,21.445304935302733Q1.5756642262005807,20.144524935302734,0.9803302262005806,19.230464935302734Q0.7001742262005806,18.738274935302734,0.4550382262005806,18.492184935302735Q0.3499802262005806,18.351554935302733,0.2799412262005806,18.281244935302734Q0.2799412262005806,18.246089935302734,0.2449212262005806,18.246089935302734L0.2449212262005806,18.210933935302734Q-0.00021467379941940423,17.964839935302734,0.1048437262005806,17.613276935302736Q0.2799412262005806,17.261714935302734,0.6301352262005806,17.261714935302734Q2.170994226200581,17.332027435302734,3.5017342262005804,17.929683935302734Q4.7274142262005805,18.492184935302735,5.392784226200581,19.019524935302734Q7.073714226200581,18.386714935302734,9.034804226200581,18.386714935302734ZM4.552314226200581,26.824214935302734Q5.042584226200581,26.824214935302734,5.3577642262005805,26.507804935302737Q5.672934226200581,26.191404935302735,5.672934226200581,25.699214935302734Q5.672934226200581,25.207024935302734,5.3577642262005805,24.890624935302736Q5.042584226200581,24.574214935302734,4.552314226200581,24.574214935302734Q4.06204422620058,24.574214935302734,3.7468642262005805,24.890624935302736Q3.4316942262005807,25.207024935302734,3.4316942262005807,25.699214935302734Q3.4316942262005807,26.191404935302735,3.7468642262005805,26.507804935302737Q4.06204422620058,26.824214935302734,4.552314226200581,26.824214935302734ZM9.034804226200581,26.824214935302734Q9.52507422620058,26.824214935302734,9.84025422620058,26.507804935302737Q10.15542422620058,26.191404935302735,10.15542422620058,25.699214935302734Q10.15542422620058,25.207024935302734,9.84025422620058,24.890624935302736Q9.52507422620058,24.574214935302734,9.034804226200581,24.574214935302734Q8.54453422620058,24.574214935302734,8.22935422620058,24.890624935302736Q7.914184226200581,25.207024935302734,7.914184226200581,25.699214935302734Q7.914184226200581,26.191404935302735,8.22935422620058,26.507804935302737Q8.54453422620058,26.824214935302734,9.034804226200581,26.824214935302734ZM12.396624226200581,25.699214935302734Q12.396624226200581,26.191404935302735,12.71182422620058,26.507804935302737Q13.02702422620058,26.824214935302734,13.51732422620058,26.824214935302734Q14.00752422620058,26.824214935302734,14.322724226200581,26.507804935302737Q14.63792422620058,26.191404935302735,14.63792422620058,25.699214935302734Q14.63792422620058,25.207024935302734,14.322724226200581,24.890624935302736Q14.00752422620058,24.574214935302734,13.51732422620058,24.574214935302734Q13.02702422620058,24.574214935302734,12.71182422620058,24.890624935302736Q12.396624226200581,25.207024935302734,12.396624226200581,25.699214935302734Z" fill="#000000" fill-opacity="1" style="mix-blend-mode:passthrough"/></g></g></g></svg>