<svg xmlns="http://www.w3.org/2000/svg" xmlns:xlink="http://www.w3.org/1999/xlink" fill="none" version="1.1" width="15" height="24" viewBox="0 0 15 24"><defs><clipPath id="master_svg0_8_029277"><rect x="0" y="0" width="15" height="24" rx="0"/></clipPath></defs><g clip-path="url(#master_svg0_8_029277)"><g transform="matrix(1,0,0,-1,0,49.03123092651367)"><g><path d="M4.537271052238941,45.515615463256836Q4.583571052238941,47.203115463256836,6.018761052238941,48.093715463256835Q7.500241052238941,48.93751546325684,8.98172105223894,48.093715463256835Q10.416861052238941,47.203115463256836,10.463161052238942,45.515615463256836Q10.416861052238941,43.828115463256836,8.98172105223894,42.93751546325684Q7.500241052238941,42.093715463256835,6.018761052238941,42.93751546325684Q4.583571052238941,43.828115463256836,4.537271052238941,45.515615463256836ZM6.759501052238941,30.515615463256836L6.759501052238941,26.015615463256836L6.759501052238941,30.515615463256836L6.759501052238941,26.015615463256836Q6.759501052238941,25.359365463256836,6.3428310522389415,24.937490463256836Q5.926161052238942,24.515615463256836,5.278021052238941,24.515615463256836Q4.629871052238941,24.515615463256836,4.213201052238941,24.937490463256836Q3.796531052238941,25.359365463256836,3.796531052238941,26.015615463256836L3.796531052238941,35.015615463256836L2.8243110522389414,33.468735463256834Q2.500241052238941,32.953115463256836,1.8983910522389411,32.81249546325684Q1.3428310522389413,32.671865463256836,0.7872760522389411,32.99999546325684Q0.2780170522389412,33.37499546325684,0.1391277522389412,33.93749546325684Q0.0002388522389411979,34.49999546325684,0.3243130522389412,35.06251546325684L2.176161052238941,38.015615463256836Q3.0557910522389413,39.421815463256834,4.444681052238941,40.218715463256835Q5.833571052238941,41.015615463256836,7.500241052238941,41.015615463256836Q9.166901052238941,41.015615463256836,10.55576105223894,40.218715463256835Q11.944661052238942,39.421815463256834,12.824361052238942,38.015615463256836L14.67616105223894,35.06251546325684Q15.00026105223894,34.49999546325684,14.86136105223894,33.93749546325684Q14.722461052238941,33.328115463256836,14.213161052238942,32.99999546325684Q13.657661052238941,32.671865463256836,13.102061052238941,32.81249546325684Q12.54656105223894,32.953115463256836,12.17616105223894,33.468735463256834L11.203961052238942,35.015615463256836L11.203961052238942,26.015615463256836Q11.203961052238942,25.359365463256836,10.787261052238941,24.937490463256836Q10.37056105223894,24.515615463256836,9.722461052238941,24.515615463256836Q9.074311052238942,24.515615463256836,8.657641052238942,24.937490463256836Q8.240981052238942,25.359365463256836,8.240981052238942,26.015615463256836L8.240981052238942,30.515615463256836L6.759501052238941,30.515615463256836Z" fill="#3E5DA6" fill-opacity="1" style="mix-blend-mode:passthrough"/></g></g></g></svg>