<svg xmlns="http://www.w3.org/2000/svg" xmlns:xlink="http://www.w3.org/1999/xlink" fill="none" version="1.1" width="22.5" height="18" viewBox="0 0 22.5 18"><defs><clipPath id="master_svg0_12_56798"><rect x="0" y="0" width="22.5" height="18" rx="0"/></clipPath></defs><g clip-path="url(#master_svg0_12_56798)"><g transform="matrix(1,0,0,-1,0,36.7734375)"><g><path d="M5.0625,36.38671875Q6.64453,36.35151875,7.48828,34.98051875Q8.26172,33.57421875,7.48828,32.16791875Q6.64453,30.79691875,5.0625,30.76171875Q3.48047,30.79691875,2.63672,32.16791875Q1.86328,33.57421875,2.63672,34.98051875Q3.48047,36.35151875,5.0625,36.38671875ZM18,36.38671875Q19.582,36.35151875,20.4258,34.98051875Q21.1992,33.57421875,20.4258,32.16791875Q19.582,30.79691875,18,30.76171875Q16.418,30.79691875,15.5742,32.16791875Q14.8008,33.57421875,15.5742,34.98051875Q16.418,36.35151875,18,36.38671875ZM0,25.87499875Q0.0351562,27.49218875,1.08984,28.54691875Q2.14453,29.60151875,3.76172,29.63671875L5.23828,29.63671875Q6.08203,29.63671875,6.82031,29.285118750000002Q6.75,28.898418749999998,6.75,28.51171875Q6.82031,26.43749875,8.26172,25.13671875L0.738281,25.13671875Q0.0703125,25.20702875,0,25.87499875ZM14.2383,25.13671875Q15.6797,26.43749875,15.75,28.51171875Q15.75,28.898418749999998,15.6797,29.285118750000002Q16.418,29.63671875,17.2617,29.63671875L18.7383,29.63671875Q20.3555,29.60151875,21.4102,28.54691875Q22.4648,27.49218875,22.5,25.87499875Q22.4297,25.20702875,21.7617,25.13671875L14.2383,25.13671875ZM7.875,28.51171875Q7.875,29.425818749999998,8.33203,30.19921875Q8.78906,30.972618750000002,9.5625,31.42971875Q10.3711,31.88671875,11.25,31.88671875Q12.1289,31.88671875,12.9375,31.42971875Q13.7109,30.972618750000002,14.168,30.19921875Q14.625,29.425818749999998,14.625,28.51171875Q14.625,27.59765875,14.168,26.82421875Q13.7109,26.05077875,12.9375,25.59374875Q12.1289,25.13671875,11.25,25.13671875Q10.3711,25.13671875,9.5625,25.59374875Q8.78906,26.05077875,8.33203,26.82421875Q7.875,27.59765875,7.875,28.51171875ZM4.5,19.33593775Q4.53516,21.30468875,5.87109,22.64062875Q7.20703,23.97655875,9.17578,24.01171875L13.3242,24.01171875Q15.293,23.97655875,16.6289,22.64062875Q17.9648,21.30468875,18,19.33593775Q17.9297,18.45703125,17.0508,18.38671875L5.44922,18.38671875Q4.57031,18.45703125,4.5,19.33593775Z" fill="#3E5DA6" fill-opacity="1" style="mix-blend-mode:passthrough"/></g></g></g></svg>