<svg xmlns="http://www.w3.org/2000/svg" xmlns:xlink="http://www.w3.org/1999/xlink" fill="none" version="1.1" width="20.25" height="18" viewBox="0 0 20.25 18"><defs><clipPath id="master_svg0_12_56782"><rect x="0" y="0" width="20.25" height="18" rx="0"/></clipPath></defs><g clip-path="url(#master_svg0_12_56782)"><g transform="matrix(1,0,0,-1,0,36.7734375)"><g><path d="M14.0625,36.38671875L6.1875,36.38671875L14.0625,36.38671875L6.1875,36.38671875Q5.48438,36.35151875,4.99219,35.89451875Q4.53516,35.40231875,4.53516,34.69921875Q4.53516,34.41791875,4.57031,34.13671875L0.84375,34.13671875Q0.0703125,34.06641875,0,33.29291875Q0.0351562,30.86721875,0.773438,29.10941875Q1.54688,27.38671875,2.77734,26.22655875Q3.9375,25.10155875,5.23828,24.46874875Q6.53906,23.83593875,7.62891,23.55468875Q8.22656,23.37890875,8.61328,22.95702875Q9,22.49999875,9,21.97265875Q9,21.41015875,8.61328,21.02343875Q8.22656,20.63671875,7.66406,20.63671875L6.75,20.63671875Q6.25781,20.63671875,5.94141,20.32030875Q5.625,20.00390875,5.625,19.51171875Q5.625,19.01953075,5.94141,18.70312475Q6.25781,18.38671875,6.75,18.38671875L13.5,18.38671875Q13.9922,18.38671875,14.3086,18.70312475Q14.625,19.01953075,14.625,19.51171875Q14.625,20.00390875,14.3086,20.32030875Q13.9922,20.63671875,13.5,20.63671875L12.5859,20.63671875Q12.0234,20.63671875,11.6367,21.02343875Q11.25,21.41015875,11.25,21.97265875Q11.25,22.49999875,11.6367,22.95702875Q12.0234,23.37890875,12.6211,23.55468875Q13.7109,23.83593875,15.0117,24.46874875Q16.3125,25.10155875,17.5078,26.22655875Q18.7031,27.38671875,19.4766,29.10941875Q20.2148,30.86721875,20.25,33.29291875Q20.1797,34.06641875,19.4062,34.13671875L15.6797,34.13671875Q15.7148,34.41791875,15.7148,34.69921875Q15.7148,35.40231875,15.2578,35.89451875Q14.7656,36.35151875,14.0625,36.38671875ZM1.72266,32.44921875L4.67578,32.44921875L1.72266,32.44921875L4.67578,32.44921875Q4.92188,30.09371875,5.41406,28.44141875Q5.90625,26.789058750000002,6.50391,25.73437875Q5.16797,26.29687875,3.9375,27.45702875Q3.09375,28.265628749999998,2.46094,29.49611875Q1.86328,30.72651875,1.72266,32.44921875ZM16.3125,27.45702875Q15.082,26.29687875,13.7461,25.73437875Q14.3438,26.789058750000002,14.8359,28.44141875Q15.3281,30.09371875,15.5742,32.44921875L18.5273,32.44921875Q18.3867,30.72651875,17.7891,29.49611875Q17.1914,28.265628749999998,16.3125,27.45702875Z" fill="#3E5DA6" fill-opacity="1" style="mix-blend-mode:passthrough"/></g></g></g></svg>