<svg xmlns="http://www.w3.org/2000/svg" xmlns:xlink="http://www.w3.org/1999/xlink" fill="none" version="1.1" width="13" height="16" viewBox="0 0 13 16"><defs><clipPath id="master_svg0_8_028374"><rect x="0" y="0" width="13" height="16" rx="0"/></clipPath></defs><g clip-path="url(#master_svg0_8_028374)"><g transform="matrix(1,0,0,-1,0,32.6875)"><g><path d="M10,30.84375Q9.96875,31.68755,9.25,32.15625Q8.5,32.53125,7.75,32.15625Q7.03125,31.68755,7,30.84375Q7.03125,29.99995,7.75,29.53125Q8.5,29.15625,9.25,29.53125Q9.96875,29.99995,10,30.84375ZM3.9375,26.84375Q4.40625,27.34375,5.09375,27.34375Q5.1875,27.34375,5.28125,27.34375L4.3125,24.40625Q4.09375,23.71875,4.3125,23.09375Q4.53125,22.46875,5.125,22.0625L7.84375,20.40625L7.03125,17.625Q6.9375,17.21875,7.125,16.84375Q7.3125,16.5,7.71875,16.375Q8.125,16.28125,8.5,16.46875Q8.84375,16.65625,8.96875,17.0625L9.875,20.21875Q10,20.6875,9.8125,21.15625Q9.65625,21.625,9.21875,21.875L7.4375,23L8.40625,25.5625L8.5625,25.1875Q8.9375,24.34375,9.65625,23.84375Q10.4062,23.34375,11.3438,23.34375L12,23.34375Q12.4375,23.34375,12.7188,23.625Q13,23.90625,13,24.34375Q13,24.78125,12.7188,25.0625Q12.4375,25.34375,12,25.34375L11.3438,25.34375Q10.6875,25.375,10.4062,25.96875L10.2188,26.43755Q9.46875,28.12495,7.6875,28.71875L6.1875,29.18755Q5.65625,29.34375,5.09375,29.34375Q3.59375,29.31255,2.53125,28.28125L1.78125,27.56255Q1.5,27.24995,1.5,26.84375Q1.5,26.43755,1.78125,26.125Q2.09375,25.84375,2.5,25.84375Q2.90625,25.84375,3.21875,26.125L3.9375,26.84375ZM2.84375,21.34375L1,21.34375L2.84375,21.34375L1,21.34375Q0.5625,21.34375,0.28125,21.0625Q0,20.78125,0,20.34375Q0,19.90625,0.28125,19.625Q0.5625,19.34375,1,19.34375L3.1875,19.34375Q4.125,19.375,4.5625,20.21875L4.90625,21.03125L4.625,21.21875Q3.78125,21.75,3.4375,22.625L2.84375,21.34375Z" fill="#3E5DA6" fill-opacity="1" style="mix-blend-mode:passthrough"/></g></g></g></svg>