<svg xmlns="http://www.w3.org/2000/svg" xmlns:xlink="http://www.w3.org/1999/xlink" fill="none" version="1.1" width="18" height="18" viewBox="0 0 18 18"><defs><clipPath id="master_svg0_12_56714"><rect x="0" y="0" width="18" height="18" rx="0"/></clipPath></defs><g clip-path="url(#master_svg0_12_56714)"><g transform="matrix(1,0,0,-1,0,36.7734375)"><g><path d="M15.75,27.38671875Q15.75,29.21481875,14.8359,30.76171875Q13.957,32.30861875,12.375,33.22261875Q10.793,34.13671875,9,34.13671875Q7.20703,34.13671875,5.625,33.22261875Q4.04297,32.30861875,3.16406,30.76171875Q2.25,29.21481875,2.25,27.38671875Q2.25,25.55859875,3.16406,24.01171875Q4.04297,22.46483875,5.625,21.55077875Q7.20703,20.63671875,9,20.63671875Q10.793,20.63671875,12.375,21.55077875Q13.957,22.46483875,14.8359,24.01171875Q15.75,25.55859875,15.75,27.38671875ZM0,27.38671875Q0.0351562,29.847618750000002,1.19531,31.88671875Q2.39062,33.92581875,4.5,35.19141875Q6.64453,36.38671875,9,36.38671875Q11.3555,36.38671875,13.5,35.19141875Q15.6094,33.92581875,16.8047,31.88671875Q17.9648,29.847618750000002,18,27.38671875Q17.9648,24.92577875,16.8047,22.88671875Q15.6094,20.84765875,13.5,19.58202875Q11.3555,18.38671875,9,18.38671875Q6.64453,18.38671875,4.5,19.58202875Q2.39062,20.84765875,1.19531,22.88671875Q0.0351562,24.92577875,0,27.38671875ZM9,24.57421875Q10.582,24.60937875,11.4258,25.98046875Q12.1992,27.38671875,11.4258,28.79291875Q10.582,30.16401875,9,30.19921875Q7.41797,30.16401875,6.57422,28.79291875Q5.80078,27.38671875,6.57422,25.98046875Q7.41797,24.60937875,9,24.57421875ZM9,32.44921875Q10.3711,32.44921875,11.5312,31.78121875Q12.6914,31.113318749999998,13.3945,29.91791875Q14.0625,28.722618750000002,14.0625,27.38671875Q14.0625,26.05077875,13.3945,24.85546875Q12.6914,23.66015875,11.5312,22.99218875Q10.3711,22.32421875,9,22.32421875Q7.62891,22.32421875,6.46875,22.99218875Q5.30859,23.66015875,4.60547,24.85546875Q3.9375,26.05077875,3.9375,27.38671875Q3.9375,28.722618750000002,4.60547,29.91791875Q5.30859,31.113318749999998,6.46875,31.78121875Q7.62891,32.44921875,9,32.44921875ZM7.875,27.38671875Q7.875,27.87890875,8.19141,28.195308750000002Q8.50781,28.51171875,9,28.51171875Q9.49219,28.51171875,9.80859,28.195308750000002Q10.125,27.87890875,10.125,27.38671875Q10.125,26.89452875,9.80859,26.578128749999998Q9.49219,26.26171875,9,26.26171875Q8.50781,26.26171875,8.19141,26.578128749999998Q7.875,26.89452875,7.875,27.38671875Z" fill="#3E5DA6" fill-opacity="1" style="mix-blend-mode:passthrough"/></g></g></g></svg>