<svg xmlns="http://www.w3.org/2000/svg" xmlns:xlink="http://www.w3.org/1999/xlink" fill="none" version="1.1" width="15.75" height="18" viewBox="0 0 15.75 18"><defs><clipPath id="master_svg0_8_027837"><rect x="0" y="0" width="15.75" height="18" rx="0"/></clipPath></defs><g clip-path="url(#master_svg0_8_027837)"><g transform="matrix(1,0,0,-1,0,36.7734375)"><g><path d="M1.125,36.38671875Q1.61719,36.38671875,1.93359,36.07031875Q2.25,35.75391875,2.25,35.26171875L2.25,34.69921875L4.67578,35.29691875Q6.75,35.78901875,8.68359,34.875018749999995Q9.91406,34.24221875,11.25,34.24221875Q12.5859,34.24221875,13.8516,34.875018749999995L14.168,35.01561875Q14.7656,35.29691875,15.2227,34.98051875Q15.7148,34.69921875,15.75,34.06641875L15.75,24.22265875Q15.7148,23.48437875,15.0117,23.16796875L13.8164,22.71093875Q11.25,21.79687875,8.82422,22.99218875Q6.75,23.97655875,4.5,23.44921875L2.25,22.88671875L2.25,19.51171875Q2.25,19.01953075,1.93359,18.70312475Q1.61719,18.38671875,1.125,18.38671875Q0.632812,18.38671875,0.316406,18.70312475Q0,19.01953075,0,19.51171875L0,22.32421875L0,24.64452875L0,34.13671875L0,35.26171875Q0,35.75391875,0.316406,36.07031875Q0.632812,36.38671875,1.125,36.38671875ZM2.25,29.812518750000002L4.5,30.30471875L2.25,29.812518750000002L4.5,30.30471875L4.5,27.984378749999998L2.25,27.49218875L2.25,25.20702875L3.97266,25.62890875Q4.21875,25.69921875,4.5,25.73437875L4.5,27.984378749999998L5.87109,28.30077875Q6.29297,28.40621875,6.75,28.37109875L6.75,30.62111875Q7.48828,30.585918749999998,8.15625,30.375018750000002L9,30.16401875L9,27.80859875L7.52344,28.23046875Q7.13672,28.33593875,6.75,28.37109875L6.75,25.87499875Q7.91016,25.76952875,9,25.34765875L9,27.80859875L9.80859,27.56249875Q10.5117,27.351558750000002,11.25,27.31640875L11.25,29.56641875Q10.8281,29.60151875,10.4414,29.74221875L9,30.16401875L9,32.34371875Q8.29688,32.51951875,7.66406,32.87111875Q7.20703,33.08201875,6.75,33.15231875L6.75,30.62111875Q6.04688,30.65621875,5.37891,30.48051875L4.5,30.30471875L4.5,32.94141875L2.25,32.37891875L2.25,29.812518750000002ZM11.25,24.57421875Q12.1641,24.50390875,13.0078,24.82030875L13.5,24.99609875L13.5,27.52733875L13.2188,27.45702875Q12.2344,27.24609875,11.25,27.31640875L11.25,24.57421875ZM13.5,29.847618750000002L13.5,32.30861875L13.5,29.847618750000002L13.5,32.30861875Q12.4102,31.99221875,11.25,31.99221875L11.25,29.56641875Q11.9883,29.49611875,12.7266,29.67191875L13.5,29.847618750000002Z" fill="#3E5DA6" fill-opacity="1" style="mix-blend-mode:passthrough"/></g></g></g></svg>