<svg xmlns="http://www.w3.org/2000/svg" xmlns:xlink="http://www.w3.org/1999/xlink" fill="none" version="1.1" width="21" height="24" viewBox="0 0 21 24"><defs><clipPath id="master_svg0_8_029125"><rect x="0" y="0" width="21" height="24" rx="0"/></clipPath></defs><g clip-path="url(#master_svg0_8_029125)"><g transform="matrix(1,0,0,-1,0,49.03125)"><g><path d="M19.5,48.515625Q19.0312,48.562525,17.625,47.859425Q16.1719,47.203125,14.9062,45.421825Q13.5938,43.593725,13.5,40.265625L13.5,35.015625Q13.5469,33.750005,14.3906,32.906245Q15.2344,32.062505,16.5,32.015625L18,32.015625L18,26.015625Q18,25.359375,18.4219,24.9375Q18.8438,24.515625,19.5,24.515625Q20.1562,24.515625,20.5781,24.9375Q21,25.359375,21,26.015625L21,32.015625L21,37.265625L21,47.015625Q21,47.671825,20.5781,48.093725Q20.1562,48.515625,19.5,48.515625ZM3,47.765625Q2.95312,48.375025,2.34375,48.515625Q1.6875,48.515625,1.5,47.906225L0.09375,41.531225Q0,41.109425,0,40.640625Q0.046875,39.000025,1.07812,37.875025Q2.15625,36.703125,3.75,36.515625L3.75,26.015625Q3.75,25.359375,4.17188,24.9375Q4.59375,24.515625,5.25,24.515625Q5.90625,24.515625,6.32812,24.9375Q6.75,25.359375,6.75,26.015625L6.75,36.515625Q8.34375,36.703125,9.42188,37.875025Q10.4531,39.000025,10.5,40.640625Q10.5,41.109425,10.4062,41.531225L9,47.906225Q8.8125,48.515625,8.15625,48.515625Q7.54688,48.375025,7.5,47.765625L7.5,41.484425Q7.45312,41.062525,7.03125,41.015625Q6.65625,41.062525,6.5625,41.437525L6,47.812525Q5.90625,48.468725,5.25,48.515625Q4.59375,48.468725,4.5,47.812525L3.9375,41.437525Q3.84375,41.062525,3.46875,41.015625Q3.04688,41.062525,3,41.484425L3,47.765625ZM5.25,40.640625L5.25,40.687525L5.25,40.640625Z" fill="#3E5DA6" fill-opacity="1" style="mix-blend-mode:passthrough"/></g></g></g></svg>