<svg xmlns="http://www.w3.org/2000/svg" xmlns:xlink="http://www.w3.org/1999/xlink" fill="none" version="1.1" width="24" height="24" viewBox="0 0 24 24"><defs><clipPath id="master_svg0_8_027007"><rect x="0" y="0" width="24" height="24" rx="0"/></clipPath></defs><g clip-path="url(#master_svg0_8_027007)"><g transform="matrix(1,0,0,-1,0,49.03125)"><g><path d="M3.51562,45.000025L1.92188,46.593725L3.51562,45.000025L1.92188,46.593725Q1.35938,47.109425,0.703125,46.828125Q0.046875,46.593725,0,45.796825L0,40.640625Q0.09375,39.609425,1.125,39.515625L6.28125,39.515625Q7.07812,39.562525,7.3125,40.218725Q7.59375,40.875025,7.07812,41.437525L5.625,42.890625Q8.15625,45.421825,12,45.515625Q15.8438,45.421825,18.375,42.890625Q20.9062,40.359425,21,36.515625Q20.9062,32.671875,18.375,30.140625Q15.8438,27.609375,12,27.515625Q9.09375,27.562505,6.84375,29.109375Q6.32812,29.484375,5.71875,29.390625Q5.15625,29.250005,4.78125,28.734375Q4.40625,28.218745,4.5,27.656245Q4.64062,27.046875,5.15625,26.671875Q8.10938,24.5625,12,24.515625Q15.375,24.5625,18.0469,26.156245Q20.7656,27.750005,22.3594,30.468745Q23.9531,33.140625,24,36.515625Q23.9531,39.890625,22.3594,42.562525Q20.7656,45.281225,18.0469,46.875025Q15.375,48.468725,12,48.515625Q9.51562,48.515625,7.3125,47.578125Q5.15625,46.640625,3.51562,45.000025ZM12,42.515625Q10.9688,42.421825,10.875,41.390625L10.875,36.515625Q10.875,36.046825,11.2031,35.718725L14.5781,32.343745Q15.375,31.687505,16.1719,32.343745Q16.8281,33.140625,16.1719,33.937505L13.125,36.984425L13.125,41.390625Q13.0312,42.421825,12,42.515625Z" fill="#3E5DA6" fill-opacity="1" style="mix-blend-mode:passthrough"/></g></g></g></svg>