<svg xmlns="http://www.w3.org/2000/svg" xmlns:xlink="http://www.w3.org/1999/xlink" fill="none" version="1.1" width="22.5" height="18" viewBox="0 0 22.5 18"><defs><clipPath id="master_svg0_11_3303"><rect x="0" y="0" width="22.5" height="18" rx="0"/></clipPath></defs><g clip-path="url(#master_svg0_11_3303)"><g transform="matrix(1,0,0,-1,0,32.27813720703125)"><g><path d="M11.3555,28.903168603515624L7.98047,26.125788603515623L11.3555,28.903168603515624L7.98047,26.125788603515623Q7.52344,25.774228603515624,7.45312,25.246878603515626Q7.41797,24.719538603515623,7.73438,24.262508603515627Q8.08594,23.805478603515624,8.64844,23.735158603515625Q9.17578,23.629688603515625,9.66797,23.981258603515627L13.1484,26.723468603515627Q13.6055,27.004668603515626,13.957,26.617968603515624Q14.2383,26.196068603515627,13.8516,25.809378603515626L13.1133,25.246878603515626L18,20.746878603515626L18,27.391368603515623L17.9648,27.391368603515623L17.8242,27.461768603515623L15.293,29.114068603515626Q14.4492,29.641368603515623,13.4648,29.641368603515623Q12.3047,29.641368603515623,11.3555,28.903168603515624ZM12.1641,24.508598603515622L10.3359,23.102348603515626L12.1641,24.508598603515622L10.3359,23.102348603515626Q9.49219,22.469538603515623,8.47266,22.610158603515625Q7.48828,22.750788603515623,6.82031,23.594538603515623Q6.22266,24.438288603515623,6.36328,25.387508603515627Q6.46875,26.336768603515623,7.24219,27.004668603515626L10.1953,29.360168603515625Q9.5625,29.641368603515623,8.89453,29.641368603515623Q7.875,29.641368603515623,7.03125,29.078868603515623L4.5,27.391368603515623L4.5,19.516408603515625L5.48438,19.516408603515625L8.71875,16.598443603515626Q9.24609,16.106256103515626,9.91406,16.141412353515626Q10.582,16.176568603515626,11.0742,16.703912603515626Q11.3906,17.020318603515626,11.4961,17.407038603515623L12.0938,16.879693603515626Q12.6211,16.387505603515624,13.2891,16.422662603515626Q13.957,16.457818603515626,14.4492,16.985162603515626Q14.6953,17.231258603515624,14.8008,17.547658603515625Q15.3281,17.196098603515626,15.9258,17.266408603515625Q16.5586,17.336728603515624,16.9805,17.828908603515625Q17.4727,18.356258603515624,17.4375,19.024228603515624Q17.4023,19.692188603515625,16.875,20.184378603515626L12.1641,24.508598603515622ZM0.5625,27.391368603515623Q0.0351562,27.356268603515623,0,26.828868603515623L0,19.516408603515625Q0,19.024228603515624,0.316406,18.707818603515626Q0.632812,18.391408603515625,1.125,18.391408603515625L2.25,18.391408603515625Q2.74219,18.391408603515625,3.05859,18.707818603515626Q3.375,19.024228603515624,3.375,19.516408603515625L3.375,27.391368603515623L0.5625,27.391368603515623ZM1.6875,20.641408603515625Q2.21484,20.606258603515627,2.25,20.078908603515625Q2.21484,19.551568603515626,1.6875,19.516408603515625Q1.16016,19.551568603515626,1.125,20.078908603515625Q1.16016,20.606258603515627,1.6875,20.641408603515625ZM19.125,27.391368603515623L19.125,19.516408603515625L19.125,27.391368603515623L19.125,19.516408603515625Q19.125,19.024228603515624,19.4414,18.707818603515626Q19.7578,18.391408603515625,20.25,18.391408603515625L21.375,18.391408603515625Q21.8672,18.391408603515625,22.1836,18.707818603515626Q22.5,19.024228603515624,22.5,19.516408603515625L22.5,26.828868603515623Q22.4648,27.356268603515623,21.9375,27.391368603515623L19.125,27.391368603515623ZM20.25,20.078908603515625Q20.2852,20.606258603515627,20.8125,20.641408603515625Q21.3398,20.606258603515627,21.375,20.078908603515625Q21.3398,19.551568603515626,20.8125,19.516408603515625Q20.2852,19.551568603515626,20.25,20.078908603515625Z" fill="#000000" fill-opacity="1" style="mix-blend-mode:passthrough"/></g></g></g></svg>