<svg xmlns="http://www.w3.org/2000/svg" xmlns:xlink="http://www.w3.org/1999/xlink" fill="none" version="1.1" width="20" height="16" viewBox="0 0 20 16"><defs><clipPath id="master_svg0_8_027929"><rect x="0" y="0" width="20" height="16" rx="0"/></clipPath></defs><g clip-path="url(#master_svg0_8_027929)"><g transform="matrix(1,0,0,-1,0,32.6875)"><g><path d="M2,30.34375L2,21.34375L2,30.34375L2,21.34375L18,21.34375L18,30.34375L2,30.34375ZM0,30.34375Q0.03125,31.18755,0.59375,31.74995Q1.15625,32.31255,2,32.34375L18,32.34375Q18.8438,32.31255,19.4062,31.74995Q19.9688,31.18755,20,30.34375L20,21.34375Q19.9688,20.5,19.4062,19.9375Q18.8438,19.375,18,19.34375L2,19.34375Q1.15625,19.375,0.59375,19.9375Q0.03125,20.5,0,21.34375L0,30.34375ZM4,18.34375L16,18.34375L4,18.34375L16,18.34375Q16.4375,18.34375,16.7188,18.0625Q17,17.78125,17,17.34375Q17,16.90625,16.7188,16.625Q16.4375,16.34375,16,16.34375L4,16.34375Q3.5625,16.34375,3.28125,16.625Q3,16.90625,3,17.34375Q3,17.78125,3.28125,18.0625Q3.5625,18.34375,4,18.34375Z" fill="#3E5DA6" fill-opacity="1" style="mix-blend-mode:passthrough"/></g></g></g></svg>