<svg xmlns="http://www.w3.org/2000/svg" xmlns:xlink="http://www.w3.org/1999/xlink" fill="none" version="1.1" width="11" height="16" viewBox="0 0 11 16"><defs><clipPath id="master_svg0_12_56852"><rect x="0" y="0" width="11" height="16" rx="0"/></clipPath></defs><g clip-path="url(#master_svg0_12_56852)"><g transform="matrix(1,0,0,-1,0,32.6875)"><g><path d="M8,20.34375Q8.53125,21.78125,9.53125,23Q9.53125,23.03125,9.53125,23.03125Q9.78125,23.375,10.0312,23.71875Q10.9688,25.0625,11,26.84375Q10.9375,29.18755,9.375,30.71875Q7.84375,32.28125,5.5,32.34375Q3.15625,32.28125,1.625,30.71875Q0.0625,29.18755,0,26.84375Q0.03125,25.0625,0.96875,23.71875Q1.21875,23.375,1.46875,23.0625Q1.46875,23.03125,1.46875,23.03125Q2.46875,21.8125,3,20.34375L8,20.34375ZM5.5,16.34375Q6.5625,16.375,7.28125,17.0625Q7.96875,17.78125,8,18.84375L8,19.34375L3,19.34375L3,18.84375Q3.03125,17.78125,3.71875,17.0625Q4.4375,16.375,5.5,16.34375ZM3,26.84375Q2.96875,26.37495,2.5,26.34375Q2.03125,26.37495,2,26.84375Q2.03125,28.34375,3.03125,29.31255Q4,30.31255,5.5,30.34375Q5.96875,30.31255,6,29.84375Q5.96875,29.37495,5.5,29.34375Q4.4375,29.31255,3.71875,28.62495Q3.03125,27.90625,3,26.84375Z" fill="#3E5DA6" fill-opacity="1" style="mix-blend-mode:passthrough"/></g></g></g></svg>