<svg xmlns="http://www.w3.org/2000/svg" xmlns:xlink="http://www.w3.org/1999/xlink" fill="none" version="1.1" width="30" height="24" viewBox="0 0 30 24"><defs><clipPath id="master_svg0_8_028892"><rect x="0" y="0" width="30" height="24" rx="0"/></clipPath></defs><g clip-path="url(#master_svg0_8_028892)"><g transform="matrix(1,0,0,-1,0,46.03125)"><g><path d="M2.53125,36.000025Q4.96875,38.343725,8.15625,39.656225Q11.3438,41.015625,15,41.015625Q18.6562,41.015625,21.8438,39.656225Q25.0312,38.343725,27.4688,36.000025Q27.9375,35.578125,28.5469,35.578125Q29.1094,35.578125,29.5781,36.046825Q30,36.515625,30,37.125025Q30,37.734425,29.5312,38.156225Q26.6719,40.921825,22.9688,42.468725Q19.2656,43.968725,15,44.015625Q10.7344,43.968725,7.03125,42.468725Q3.32812,40.921825,0.46875,38.156225Q0,37.734425,0,37.125025Q0,36.515625,0.421875,36.046825Q0.890625,35.578125,1.45312,35.578125Q2.0625,35.578125,2.53125,36.000025ZM15,33.515625Q19.0781,33.421825,21.9375,30.890625Q22.4531,30.468745,23.0156,30.515625Q23.625,30.562505,24.0469,31.031245Q24.4688,31.500005,24.4219,32.109375Q24.4219,32.718745,23.9531,33.140625Q22.125,34.734425,19.875,35.625025Q17.5781,36.515625,15,36.515625Q12.4219,36.515625,10.125,35.625025Q7.875,34.734425,6.09375,33.140625Q5.625,32.718745,5.57812,32.109375Q5.53125,31.500005,5.95312,31.031245Q6.375,30.562505,6.98438,30.515625Q7.54688,30.468745,8.0625,30.890625Q10.9219,33.421825,15,33.515625ZM18,26.015625Q17.9531,27.703125,16.5,28.593745Q15,29.437505,13.5,28.593745Q12.0469,27.703125,12,26.015625Q12.0469,24.328125,13.5,23.4375Q15,22.59375,16.5,23.4375Q17.9531,24.328125,18,26.015625Z" fill="#3E5DA6" fill-opacity="1" style="mix-blend-mode:passthrough"/></g></g></g></svg>