<svg xmlns="http://www.w3.org/2000/svg" xmlns:xlink="http://www.w3.org/1999/xlink" fill="none" version="1.1" width="18" height="18" viewBox="0 0 18 18"><defs><clipPath id="master_svg0_8_027034"><rect x="0" y="0" width="18" height="18" rx="0"/></clipPath></defs><g clip-path="url(#master_svg0_8_027034)"><g transform="matrix(1,0,0,-1,0,34.5234375)"><g><path d="M1.125,33.01171875Q1.61719,33.01171875,1.93359,32.69531875Q2.25,32.37891875,2.25,31.88671875L2.25,20.07421875Q2.28516,19.54687875,2.8125,19.51171875L16.875,19.51171875Q17.3672,19.51171875,17.6836,19.19530875Q18,18.87890875,18,18.38671875Q18,17.89453075,17.6836,17.57812475Q17.3672,17.26171875,16.875,17.26171875L2.8125,17.26171875Q1.61719,17.29687495,0.808594,18.07031275Q0.0351562,18.87890875,0,20.07421875L0,31.88671875Q0,32.37891875,0.316406,32.69531875Q0.632812,33.01171875,1.125,33.01171875ZM4.5,29.63671875Q4.5,30.12891875,4.81641,30.44531875Q5.13281,30.76171875,5.625,30.76171875L12.375,30.76171875Q12.8672,30.76171875,13.1836,30.44531875Q13.5,30.12891875,13.5,29.63671875Q13.5,29.14451875,13.1836,28.82811875Q12.8672,28.51171875,12.375,28.51171875L5.625,28.51171875Q5.13281,28.51171875,4.81641,28.82811875Q4.5,29.14451875,4.5,29.63671875ZM5.625,27.38671875L10.125,27.38671875L5.625,27.38671875L10.125,27.38671875Q10.6172,27.38671875,10.9336,27.070308750000002Q11.25,26.75390875,11.25,26.26171875Q11.25,25.76952875,10.9336,25.453128749999998Q10.6172,25.13671875,10.125,25.13671875L5.625,25.13671875Q5.13281,25.13671875,4.81641,25.453128749999998Q4.5,25.76952875,4.5,26.26171875Q4.5,26.75390875,4.81641,27.070308750000002Q5.13281,27.38671875,5.625,27.38671875ZM5.625,24.01171875L14.625,24.01171875L5.625,24.01171875L14.625,24.01171875Q15.1172,24.01171875,15.4336,23.69530875Q15.75,23.37890875,15.75,22.88671875Q15.75,22.39452875,15.4336,22.07812875Q15.1172,21.76171875,14.625,21.76171875L5.625,21.76171875Q5.13281,21.76171875,4.81641,22.07812875Q4.5,22.39452875,4.5,22.88671875Q4.5,23.37890875,4.81641,23.69530875Q5.13281,24.01171875,5.625,24.01171875Z" fill="#000000" fill-opacity="1" style="mix-blend-mode:passthrough"/></g></g></g></svg>