<svg xmlns="http://www.w3.org/2000/svg" xmlns:xlink="http://www.w3.org/1999/xlink" fill="none" version="1.1" width="18" height="18" viewBox="0 0 18 18"><defs><clipPath id="master_svg0_8_027522"><rect x="0" y="0" width="18" height="18" rx="0"/></clipPath></defs><g clip-path="url(#master_svg0_8_027522)"><g transform="matrix(1,0,0,-1,0,36.7734375)"><g><path d="M9,36.38671875Q11.4609,36.35151875,13.5,35.19141875Q15.5391,33.99611875,16.8047,31.88671875Q18,29.74221875,18,27.38671875Q18,25.03124875,16.8047,22.88671875Q15.5391,20.77733875,13.5,19.58202875Q11.4609,18.42187495,9,18.38671875Q6.53906,18.42187495,4.5,19.58202875Q2.46094,20.77733875,1.19531,22.88671875Q0,25.03124875,0,27.38671875Q0,29.74221875,1.19531,31.88671875Q2.46094,33.99611875,4.5,35.19141875Q6.53906,36.35151875,9,36.38671875ZM8.15625,32.16791875L8.15625,27.38671875L8.15625,32.16791875L8.15625,27.38671875Q8.15625,26.92968875,8.54297,26.68359875L11.918,24.43359875Q12.5859,24.04687875,13.0781,24.67968875Q13.4648,25.34765875,12.832,25.83983875L9.84375,27.84374875L9.84375,32.16791875Q9.77344,32.94141875,9,33.01171875Q8.22656,32.94141875,8.15625,32.16791875Z" fill="#000000" fill-opacity="1" style="mix-blend-mode:passthrough"/></g></g></g></svg>