<svg xmlns="http://www.w3.org/2000/svg" xmlns:xlink="http://www.w3.org/1999/xlink" fill="none" version="1.1" width="18" height="18" viewBox="0 0 18 18"><defs><clipPath id="master_svg0_8_028591"><rect x="0" y="0" width="18" height="18" rx="0"/></clipPath></defs><g clip-path="url(#master_svg0_8_028591)"><g transform="matrix(1,0,0,-1,0,36.7734375)"><g><path d="M11.8125,24.01171875Q14.4492,24.08202875,16.1719,25.83983875Q17.9297,27.56249875,18,30.19921875Q17.9297,32.83591875,16.1719,34.55861875Q14.4492,36.31641875,11.8125,36.38671875Q9.17578,36.31641875,7.45312,34.55861875Q5.69531,32.83591875,5.625,30.19921875Q5.625,29.21481875,5.90625,28.30077875L0.246094,22.64062875Q0,22.39452875,0,22.04296875L0,19.23046875Q0.0703125,18.45703125,0.84375,18.38671875L3.65625,18.38671875Q4.42969,18.45703125,4.5,19.23046875L4.5,20.63671875L5.90625,20.63671875Q6.67969,20.70702875,6.75,21.48046875L6.75,22.88671875L8.15625,22.88671875Q8.50781,22.88671875,8.75391,23.13280875L9.91406,24.29296875Q10.8281,24.01171875,11.8125,24.01171875ZM13.2188,33.01171875Q14.0273,32.97651875,14.4492,32.30861875Q14.8008,31.60551875,14.4492,30.90231875Q14.0273,30.23441875,13.2188,30.19921875Q12.4102,30.23441875,11.9883,30.90231875Q11.6367,31.60551875,11.9883,32.30861875Q12.4102,32.97651875,13.2188,33.01171875Z" fill="#000000" fill-opacity="1" style="mix-blend-mode:passthrough"/></g></g></g></svg>