<svg xmlns="http://www.w3.org/2000/svg" xmlns:xlink="http://www.w3.org/1999/xlink" fill="none" version="1.1" width="18" height="18" viewBox="0 0 18 18"><defs><clipPath id="master_svg0_12_56743"><rect x="0" y="0" width="18" height="18" rx="0"/></clipPath></defs><g clip-path="url(#master_svg0_12_56743)"><g transform="matrix(1,0,0,-1,0,36.7734375)"><g><path d="M9,18.38671875Q11.4609,18.42187495,13.5,19.58202875Q15.5391,20.77733875,16.8047,22.88671875Q18,25.03124875,18,27.38671875Q18,29.74221875,16.8047,31.88671875Q15.5391,33.99611875,13.5,35.19141875Q11.4609,36.35151875,9,36.38671875Q6.53906,36.35151875,4.5,35.19141875Q2.46094,33.99611875,1.19531,31.88671875Q0,29.74221875,0,27.38671875Q0,25.03124875,1.19531,22.88671875Q2.46094,20.77733875,4.5,19.58202875Q6.53906,18.42187495,9,18.38671875ZM7.59375,24.57421875L8.4375,24.57421875L7.59375,24.57421875L8.4375,24.57421875L8.4375,26.82421875L7.59375,26.82421875Q6.82031,26.89452875,6.75,27.66796875Q6.82031,28.44141875,7.59375,28.51171875L9.28125,28.51171875Q10.0547,28.44141875,10.125,27.66796875L10.125,24.57421875L10.4062,24.57421875Q11.1797,24.50390875,11.25,23.73046875Q11.1797,22.95702875,10.4062,22.88671875L7.59375,22.88671875Q6.82031,22.95702875,6.75,23.73046875Q6.82031,24.50390875,7.59375,24.57421875ZM9,31.88671875Q9.49219,31.88671875,9.80859,31.57031875Q10.125,31.25391875,10.125,30.76171875Q10.125,30.26951875,9.80859,29.95311875Q9.49219,29.63671875,9,29.63671875Q8.50781,29.63671875,8.19141,29.95311875Q7.875,30.26951875,7.875,30.76171875Q7.875,31.25391875,8.19141,31.57031875Q8.50781,31.88671875,9,31.88671875Z" fill="#3E5DA6" fill-opacity="1" style="mix-blend-mode:passthrough"/></g></g></g></svg>