<svg xmlns="http://www.w3.org/2000/svg" xmlns:xlink="http://www.w3.org/1999/xlink" fill="none" version="1.1" width="27" height="24" viewBox="0 0 27 24"><defs><clipPath id="master_svg0_8_028964"><rect x="0" y="0" width="27" height="24" rx="0"/></clipPath></defs><g clip-path="url(#master_svg0_8_028964)"><g transform="matrix(1,0,0,-1,0,46.03125)"><g><path d="M3,44.015625Q1.73438,43.968725,0.890625,43.125025Q0.046875,42.281225,0,41.015625L0,26.015625Q0.046875,24.750005,0.890625,23.90625Q1.73438,23.0625,3,23.015625L4.5,23.015625L4.5,44.015625L3,44.015625ZM6,44.015625L6,23.015625L6,44.015625L6,23.015625L21,23.015625L21,44.015625L6,44.015625ZM24,23.015625Q25.2656,23.0625,26.1094,23.90625Q26.9531,24.750005,27,26.015625L27,41.015625Q26.9531,42.281225,26.1094,43.125025Q25.2656,43.968725,24,44.015625L22.5,44.015625L22.5,23.015625L24,23.015625ZM12,37.265625Q12.0469,37.968725,12.75,38.015625L14.25,38.015625Q14.9531,37.968725,15,37.265625L15,35.015625L17.25,35.015625Q17.9531,34.968725,18,34.265625L18,32.765625Q17.9531,32.062505,17.25,32.015625L15,32.015625L15,29.765625Q14.9531,29.062505,14.25,29.015625L12.75,29.015625Q12.0469,29.062505,12,29.765625L12,32.015625L9.75,32.015625Q9.04688,32.062505,9,32.765625L9,34.265625Q9.04688,34.968725,9.75,35.015625L12,35.015625L12,37.265625Z" fill="#3E5DA6" fill-opacity="1" style="mix-blend-mode:passthrough"/></g></g></g></svg>