<svg xmlns="http://www.w3.org/2000/svg" xmlns:xlink="http://www.w3.org/1999/xlink" fill="none" version="1.1" width="13.5" height="18" viewBox="0 0 13.5 18"><defs><clipPath id="master_svg0_12_56754"><rect x="0" y="0" width="13.5" height="18" rx="0"/></clipPath></defs><g clip-path="url(#master_svg0_12_56754)"><g transform="matrix(1,0,0,-1,0,36.781246185302734)"><g><path d="M6.117614055261612,36.18362309265137Q6.732804055261612,36.570323092651364,7.347994055261612,36.18362309265137L7.963184055261612,35.796823092651366Q8.270774055261612,35.58592309265137,8.646724055261611,35.58592309265137L9.364444055261611,35.656223092651366Q10.116344055261612,35.656223092651366,10.458104055261613,34.98832309265137L10.799904055261612,34.320323092651364Q10.970804055261612,34.00392309265137,11.278404055261612,33.82812309265137L11.961904055261613,33.47652309265137Q12.577104055261612,33.12502309265137,12.577104055261612,32.35152309265137L12.508704055261612,31.613323092651367Q12.508704055261612,31.22652309265137,12.713804055261612,30.910123092651368L13.123904055261612,30.277323092651365Q13.499904055261611,29.64452309265137,13.123904055261612,29.011723092651366L12.713804055261612,28.378903092651367Q12.508704055261612,28.06250309265137,12.508704055261612,27.675783092651365L12.577104055261612,26.93750309265137Q12.577104055261612,26.164063092651368,11.927704055261612,25.81250309265137L11.278404055261612,25.460933092651366Q10.970804055261612,25.285153092651367,10.799904055261612,24.968743092651366L10.458104055261613,24.265623092651367Q10.116344055261612,23.632813092651368,9.398624055261612,23.632813092651368L8.646724055261611,23.703123092651367Q8.270774055261612,23.703123092651367,7.963184055261612,23.492183092651366L7.347994055261612,23.070313092651368Q6.732804055261612,22.683593092651368,6.117614055261612,23.070313092651368L5.502424055261612,23.492183092651366Q5.194824055261612,23.703123092651367,4.818874055261612,23.703123092651367L4.1011540552616115,23.632813092651368Q3.349254055261612,23.632813092651368,3.007484055261612,24.30078309265137L2.665714055261612,24.968743092651366Q2.494824055261612,25.285153092651367,2.187234055261612,25.460933092651366L1.5378640552616119,25.81250309265137Q0.888498055261612,26.164063092651368,0.888498055261612,26.902343092651368L0.956852055261612,27.675783092651365Q0.956852055261612,28.06250309265137,0.751789055261612,28.378903092651367L0.37583905526161193,29.011723092651366Q-0.00010994473838807362,29.64452309265137,0.37583905526161193,30.277323092651365L0.751789055261612,30.910123092651368Q0.956852055261612,31.22652309265137,0.956852055261612,31.613323092651367L0.888498055261612,32.35152309265137Q0.888498055261612,33.12502309265137,1.5378640552616119,33.47652309265137L2.187234055261612,33.82812309265137Q2.494824055261612,34.00392309265137,2.665714055261612,34.320323092651364L3.007484055261612,34.98832309265137Q3.349254055261612,35.656223092651366,4.1011540552616115,35.656223092651366L4.818874055261612,35.58592309265137Q5.194824055261612,35.58592309265137,5.502424055261612,35.796823092651366L6.117614055261612,36.18362309265137ZM9.466974055261613,29.64452309265137Q9.432804055261611,31.22652309265137,8.099894055261611,32.070323092651364Q6.732804055261612,32.843723092651366,5.365714055261612,32.070323092651364Q4.032804055261612,31.22652309265137,3.998624055261612,29.64452309265137Q4.032804055261612,28.06250309265137,5.365714055261612,27.218743092651366Q6.732804055261612,26.445313092651368,8.099894055261611,27.218743092651366Q9.432804055261611,28.06250309265137,9.466974055261613,29.64452309265137ZM0.20495345526161193,20.855463092651366L1.674574055261612,24.476563092651368L0.20495345526161193,20.855463092651366L1.674574055261612,24.476563092651368Q1.7087540552616118,24.476563092651368,1.7087540552616118,24.441403092651367L2.016344055261612,23.773433092651366Q2.734064055261612,22.507813092651368,4.1353340552616125,22.507813092651368L4.887234055261612,22.578123092651367L4.887234055261612,22.542963092651366L5.502424055261612,22.156243092651366Q5.775834055261612,21.980463092651366,6.049254055261612,21.87500309265137L4.784704055261612,18.746092092651367Q4.647994055261612,18.42968569265137,4.306214055261612,18.394529462651366Q3.998624055261612,18.35937319265137,3.827734055261612,18.640623092651367L2.6998940552616117,20.36328309265137L0.7859660552616119,20.08203309265137Q0.47837105526161194,20.046873092651367,0.27330805526161195,20.292963092651366Q0.10242175526161194,20.574213092651366,0.20495345526161193,20.855463092651366ZM8.680904055261612,18.746092092651367L7.416344055261612,21.87500309265137L8.680904055261612,18.746092092651367L7.416344055261612,21.87500309265137Q7.6897640552616116,21.980463092651366,7.963184055261612,22.156243092651366L8.578374055261612,22.542963092651366Q8.578374055261612,22.578123092651367,8.578374055261612,22.578123092651367L9.330264055261612,22.507813092651368Q10.731504055261611,22.507813092651368,11.449304055261612,23.773433092651366L11.756804055261611,24.441403092651367Q11.756804055261611,24.476563092651368,11.791004055261611,24.476563092651368L13.260604055261611,20.855463092651366Q13.363204055261612,20.574213092651366,13.192304055261612,20.292963092651366Q12.987204055261612,20.046873092651367,12.679604055261612,20.08203309265137L10.765704055261612,20.36328309265137L9.637864055261613,18.640623092651367Q9.466974055261613,18.394529462651366,9.159384055261611,18.394529462651366Q8.817614055261611,18.42968569265137,8.680904055261612,18.746092092651367Z" fill="#3E5DA6" fill-opacity="1" style="mix-blend-mode:passthrough"/></g></g></g></svg>