<svg xmlns="http://www.w3.org/2000/svg" xmlns:xlink="http://www.w3.org/1999/xlink" fill="none" version="1.1" width="18" height="16" viewBox="0 0 18 16"><defs><clipPath id="master_svg0_11_8397"><rect x="0" y="0" width="18" height="16" rx="0"/></clipPath></defs><g clip-path="url(#master_svg0_11_8397)"><g transform="matrix(1,0,0,-1,0,32.6875)"><g><path d="M12.5,32.34375L5.5,32.34375L12.5,32.34375L5.5,32.34375Q4.875,32.31255,4.4375,31.90625Q4.03125,31.46875,4.03125,30.84375Q4.03125,30.59375,4.0625,30.34375L0.75,30.34375Q0.0625,30.28125,0,29.59375Q0.03125,27.43755,0.6875,25.875Q1.375,24.34375,2.46875,23.3125Q3.5,22.3125,4.65625,21.75Q5.8125,21.1875,6.78125,20.9375Q7.3125,20.78125,7.65625,20.40625Q8,20,8,19.53125Q8,19.03125,7.65625,18.6875Q7.3125,18.34375,6.8125,18.34375L6,18.34375Q5.5625,18.34375,5.28125,18.0625Q5,17.78125,5,17.34375Q5,16.90625,5.28125,16.625Q5.5625,16.34375,6,16.34375L12,16.34375Q12.4375,16.34375,12.7188,16.625Q13,16.90625,13,17.34375Q13,17.78125,12.7188,18.0625Q12.4375,18.34375,12,18.34375L11.1875,18.34375Q10.6875,18.34375,10.3438,18.6875Q10,19.03125,10,19.53125Q10,20,10.3438,20.40625Q10.6875,20.78125,11.2188,20.9375Q12.1875,21.1875,13.3438,21.75Q14.5,22.3125,15.5625,23.3125Q16.625,24.34375,17.3125,25.875Q17.9688,27.43755,18,29.59375Q17.9375,30.28125,17.25,30.34375L13.9375,30.34375Q13.9688,30.59375,13.9688,30.84375Q13.9688,31.46875,13.5625,31.90625Q13.125,32.31255,12.5,32.34375ZM1.53125,28.84375L4.15625,28.84375L1.53125,28.84375L4.15625,28.84375Q4.375,26.74995,4.8125,25.28125Q5.25,23.8125,5.78125,22.875Q4.59375,23.375,3.5,24.40625Q2.75,25.125,2.1875,26.21875Q1.65625,27.31255,1.53125,28.84375ZM14.5,24.40625Q13.4062,23.375,12.2188,22.875Q12.75,23.8125,13.1875,25.28125Q13.625,26.74995,13.8438,28.84375L16.4688,28.84375Q16.3438,27.31255,15.8125,26.21875Q15.2812,25.125,14.5,24.40625Z" fill="#3E5DA6" fill-opacity="1" style="mix-blend-mode:passthrough"/></g></g></g></svg>