<svg xmlns="http://www.w3.org/2000/svg" xmlns:xlink="http://www.w3.org/1999/xlink" fill="none" version="1.1" width="20.25" height="18" viewBox="0 0 20.25 18"><defs><clipPath id="master_svg0_12_56809"><rect x="0" y="0" width="20.25" height="18" rx="0"/></clipPath></defs><g clip-path="url(#master_svg0_12_56809)"><g transform="matrix(1,0,0,-1,0,34.5328369140625)"><g><path d="M0,30.17341845703125L0,19.31016845703125L0,30.17341845703125L0,19.31016845703125Q0.0351562,18.25548045703125,0.949219,17.83360545703125Q3.23438,17.06016845703125,5.55469,17.34141835703125Q7.83984,17.62266845703125,10.125,18.25548045703125Q12.2344,18.85313845703125,14.3438,19.16953845703125Q16.4531,19.45078845703125,18.5273,18.92344845703125Q19.1602,18.78282845703125,19.6875,19.13438845703125Q20.2148,19.45078845703125,20.25,20.118758457031248L20.25,30.982018457031252Q20.2148,32.03671845703125,19.3008,32.45861845703125Q17.0156,33.23201845703125,14.7305,32.95081845703125Q12.4102,32.66951845703125,10.125,32.03671845703125Q8.01562,31.43911845703125,5.90625,31.15781845703125Q3.79688,30.84141845703125,1.72266,31.36871845703125Q1.05469,31.509418457031252,0.5625,31.19301845703125Q0.0351562,30.84141845703125,0,30.17341845703125ZM10.125,21.77110845703125Q8.92969,21.806258457031248,8.12109,22.755478457031252Q7.34766,23.70469845703125,7.3125,25.14610845703125Q7.34766,26.587508457031248,8.12109,27.53671845703125Q8.92969,28.48591845703125,10.125,28.52111845703125Q11.3203,28.48591845703125,12.1289,27.53671845703125Q12.9023,26.587508457031248,12.9375,25.14610845703125Q12.9023,23.70469845703125,12.1289,22.755478457031252Q11.3203,21.806258457031248,10.125,21.77110845703125ZM2.25,21.77110845703125Q3.19922,21.73594845703125,3.83203,21.10313845703125Q4.46484,20.47032845703125,4.5,19.52110845703125L2.25,19.52110845703125L2.25,21.77110845703125ZM4.5,29.08361845703125Q4.46484,28.134418457031252,3.83203,27.50161845703125Q3.19922,26.868758457031248,2.25,26.83360845703125L2.25,29.08361845703125L4.5,29.08361845703125ZM18,23.45860845703125L18,21.20860845703125L18,23.45860845703125L18,21.20860845703125L15.75,21.20860845703125Q15.7852,22.15782845703125,16.418,22.79063845703125Q17.0508,23.42344845703125,18,23.45860845703125ZM15.75,30.77111845703125L18,30.77111845703125L15.75,30.77111845703125L18,30.77111845703125L18,28.52111845703125Q17.0508,28.55621845703125,16.418,29.18911845703125Q15.7852,29.821918457031252,15.75,30.77111845703125Z" fill="#3E5DA6" fill-opacity="1" style="mix-blend-mode:passthrough"/></g></g></g></svg>