<svg xmlns="http://www.w3.org/2000/svg" xmlns:xlink="http://www.w3.org/1999/xlink" fill="none" version="1.1" width="21" height="24" viewBox="0 0 21 24"><defs><clipPath id="master_svg0_8_029271"><rect x="0" y="0" width="21" height="24" rx="0"/></clipPath></defs><g clip-path="url(#master_svg0_8_029271)"><g transform="matrix(1,0,0,-1,0,46.03125)"><g><path d="M3,44.015625Q1.73438,43.968725,0.890625,43.125025Q0.046875,42.281225,0,41.015625L0,26.015625Q0.046875,24.750005,0.890625,23.90625Q1.73438,23.0625,3,23.015625L18,23.015625Q19.2656,23.0625,20.1094,23.90625Q20.9531,24.750005,21,26.015625L21,41.015625Q20.9531,42.281225,20.1094,43.125025Q19.2656,43.968725,18,44.015625L3,44.015625ZM9,33.515625L11.25,33.515625L9,33.515625L11.25,33.515625Q11.9062,33.515625,12.3281,33.937525Q12.75,34.359425,12.75,35.015625Q12.75,35.671825,12.3281,36.093725Q11.9062,36.515625,11.25,36.515625L9,36.515625L9,33.515625ZM11.25,30.515625L9,30.515625L11.25,30.515625L9,30.515625L9,29.015625Q9,28.359375,8.57812,27.937505Q8.15625,27.515625,7.5,27.515625Q6.84375,27.515625,6.42188,27.937505Q6,28.359375,6,29.015625L6,32.015625L6,37.640625Q6,38.437525,6.5625,38.953125Q7.07812,39.515625,7.875,39.515625L11.25,39.515625Q13.1719,39.468725,14.4375,38.203125Q15.7031,36.937525,15.75,35.015625Q15.7031,33.093725,14.4375,31.828125Q13.1719,30.562505,11.25,30.515625Z" fill="#3E5DA6" fill-opacity="1" style="mix-blend-mode:passthrough"/></g></g></g></svg>