<svg xmlns="http://www.w3.org/2000/svg" xmlns:xlink="http://www.w3.org/1999/xlink" fill="none" version="1.1" width="24" height="24" viewBox="0 0 24 24"><defs><clipPath id="master_svg0_8_029175"><rect x="0" y="0" width="24" height="24" rx="0"/></clipPath></defs><g clip-path="url(#master_svg0_8_029175)"><g transform="matrix(1,0,0,-1,0,46.03125)"><g><path d="M6.98438,42.468725L6.51562,41.015625L6.98438,42.468725L6.51562,41.015625L3,41.015625Q1.73438,40.968725,0.890625,40.125025Q0.046875,39.281225,0,38.015625L0,26.015625Q0.046875,24.750005,0.890625,23.90625Q1.73438,23.0625,3,23.015625L21,23.015625Q22.2656,23.0625,23.1094,23.90625Q23.9531,24.750005,24,26.015625L24,38.015625Q23.9531,39.281225,23.1094,40.125025Q22.2656,40.968725,21,41.015625L17.4844,41.015625L17.0156,42.468725Q16.4531,43.921825,14.8594,44.015625L9.14062,44.015625Q7.54688,43.921825,6.98438,42.468725ZM12,36.515625Q13.2188,36.515625,14.25,35.906225Q15.2812,35.296825,15.8906,34.265625Q16.5,33.187525,16.5,32.015625Q16.5,30.843745,15.8906,29.765625Q15.2812,28.734375,14.25,28.125005Q13.2188,27.515625,12,27.515625Q10.7812,27.515625,9.75,28.125005Q8.71875,28.734375,8.10938,29.765625Q7.5,30.843745,7.5,32.015625Q7.5,33.187525,8.10938,34.265625Q8.71875,35.296825,9.75,35.906225Q10.7812,36.515625,12,36.515625Z" fill="#3E5DA6" fill-opacity="1" style="mix-blend-mode:passthrough"/></g></g></g></svg>