<svg xmlns="http://www.w3.org/2000/svg" xmlns:xlink="http://www.w3.org/1999/xlink" fill="none" version="1.1" width="18" height="18" viewBox="0 0 18 18"><defs><clipPath id="master_svg0_12_56354"><rect x="0" y="0" width="18" height="18" rx="0"/></clipPath></defs><g clip-path="url(#master_svg0_12_56354)"><g transform="matrix(1,0,0,-1,0,36.796875)"><g><path d="M1.125,33.0351375L12.375,33.0351375L1.125,33.0351375L12.375,33.0351375L12.375,35.285137500000005Q12.4102,36.0234375,13.0781,36.3398375Q13.7461,36.5859375,14.3086,36.0937375L17.6836,32.7187375Q18,32.3672375,18,31.910137499999998Q18,31.4531375,17.6836,31.1015375L14.3086,27.7265575Q13.7461,27.2343775,13.0781,27.5156275Q12.4102,27.7968775,12.375,28.535137499999998L12.375,30.785137499999998L1.125,30.785137499999998Q0.632812,30.785137499999998,0.316406,31.1015375Q0,31.4179375,0,31.910137499999998Q0,32.4023375,0.316406,32.7187375Q0.632812,33.0351375,1.125,33.0351375ZM16.875,24.0351575Q17.3672,24.0351575,17.6836,23.7187475Q18,23.4023475,18,22.9101575Q18,22.4179675,17.6836,22.1015575Q17.3672,21.7851575,16.875,21.7851575L5.625,21.7851575L5.625,19.5351575Q5.58984,18.7968755,4.92188,18.4804688Q4.25391,18.2343755,3.69141,18.7265625L0.316406,22.1015575Q0,22.4531275,0,22.9101575Q0,23.3671875,0.316406,23.6835975L3.69141,27.058597499999998Q4.25391,27.5859375,4.92188,27.3046875Q5.58984,27.0234375,5.625,26.2851575L5.625,24.0351575L16.875,24.0351575Z" fill="#3E5DA6" fill-opacity="1" style="mix-blend-mode:passthrough"/></g></g></g></svg>