<svg xmlns="http://www.w3.org/2000/svg" xmlns:xlink="http://www.w3.org/1999/xlink" fill="none" version="1.1" width="18" height="16" viewBox="0 0 18 16"><defs><clipPath id="master_svg0_8_029359"><rect x="0" y="0" width="18" height="16" rx="0"/></clipPath></defs><g clip-path="url(#master_svg0_8_029359)"><g transform="matrix(1,0,0,-1,0,30.6875)"><g><path d="M8.98469671875,29.34375Q7.09484671875,29.31255,5.60775671875,28.59375Q4.12066671875,27.87505,3.00534671875,26.81255Q1.92100671875,25.78125,1.20844671875,24.6875Q0.49588071875,23.59375,0.15508941874999999,22.71875Q0.00018401875000000067,22.34375,0.15508941874999999,21.96875Q0.49588071875,21.09375,1.20844671875,20Q1.92100671875,18.90625,3.00534671875,17.875Q4.12066671875,16.8125,5.60775671875,16.09375Q7.09484671875,15.375,8.98469671875,15.34375Q10.87453671875,15.375,12.36163671875,16.09375Q13.84873671875,16.8125,14.96403671875,17.875Q16.04833671875,18.90625,16.76093671875,20Q17.47353671875,21.09375,17.84523671875,21.96875Q18.00023671875,22.34375,17.84523671875,22.71875Q17.47353671875,23.59375,16.76093671875,24.6875Q16.04833671875,25.78125,14.96403671875,26.81255Q13.84873671875,27.87505,12.36163671875,28.59375Q10.87453671875,29.31255,8.98469671875,29.34375ZM4.52341671875,22.34375Q4.52341671875,23.5625,5.11205671875,24.59375Q5.70069671875,25.62495,6.75405671875,26.24995Q7.80741671875,26.84375,8.98469671875,26.84375Q10.16193671875,26.84375,11.21533671875,26.24995Q12.26873671875,25.62495,12.85733671875,24.59375Q13.44593671875,23.5625,13.44593671875,22.34375Q13.44593671875,21.125,12.85733671875,20.09375Q12.26873671875,19.0625,11.21533671875,18.4375Q10.16193671875,17.84375,8.98469671875,17.84375Q7.80741671875,17.84375,6.75405671875,18.4375Q5.70069671875,19.0625,5.11205671875,20.09375Q4.52341671875,21.125,4.52341671875,22.34375ZM8.98469671875,24.34375Q8.95371671875,23.5,8.39605671875,22.9375Q7.83839671875,22.375,7.00190671875,22.34375Q6.66111671875,22.34375,6.38228671875,22.4375Q6.07247671875,22.5,6.01050671875,22.21875Q6.01050671875,21.90625,6.10345671875,21.5625Q6.47522671875,20.34375,7.49760671875,19.75Q8.51997671875,19.15625,9.75921671875,19.4375Q10.96743671875,19.8125,11.55613671875,20.84375Q12.14473671875,21.875,11.86593671875,23.125Q11.58713671875,24.09375,10.84353671875,24.6875Q10.06902671875,25.28125,9.10861671875,25.34375Q8.82978671875,25.28125,8.89174671875,24.96875Q8.98469671875,24.6875,8.98469671875,24.34375Z" fill="#6B7280" fill-opacity="1" style="mix-blend-mode:passthrough"/></g></g></g></svg>