<svg xmlns="http://www.w3.org/2000/svg" xmlns:xlink="http://www.w3.org/1999/xlink" fill="none" version="1.1" width="18" height="18" viewBox="0 0 18 18"><defs><clipPath id="master_svg0_12_37889"><rect x="0" y="0" width="18" height="18" rx="0"/></clipPath></defs><g clip-path="url(#master_svg0_12_37889)"><g transform="matrix(1,0,0,-1,0,36.7734375)"><g><path d="M2.63672,33.75001875L1.44141,34.94531875L2.63672,33.75001875L1.44141,34.94531875Q1.01953,35.33201875,0.527344,35.12111875Q0.0351562,34.94531875,0,34.34761875L0,30.48051875Q0.0703125,29.70701875,0.84375,29.63671875L4.71094,29.63671875Q5.30859,29.67191875,5.48438,30.16401875Q5.69531,30.65621875,5.30859,31.07811875L4.21875,32.16791875Q6.11719,34.06641875,9,34.13671875Q11.8828,34.06641875,13.7812,32.16791875Q15.6797,30.26951875,15.75,27.38671875Q15.6797,24.50390875,13.7812,22.60546875Q11.8828,20.70702875,9,20.63671875Q6.82031,20.67187875,5.13281,21.83202875Q4.74609,22.11327875,4.28906,22.04296875Q3.86719,21.93749875,3.58594,21.55077875Q3.30469,21.16405875,3.375,20.74218875Q3.48047,20.28515875,3.86719,20.00390875Q6.08203,18.42187495,9,18.38671875Q11.5312,18.42187495,13.5352,19.61718875Q15.5742,20.81249875,16.7695,22.85155875Q17.9648,24.85546875,18,27.38671875Q17.9648,29.91791875,16.7695,31.92191875Q15.5742,33.96091875,13.5352,35.15621875Q11.5312,36.35151875,9,36.38671875Q7.13672,36.38671875,5.48438,35.68361875Q3.86719,34.98051875,2.63672,33.75001875ZM9,31.88671875Q8.22656,31.81641875,8.15625,31.04291875L8.15625,27.38671875Q8.15625,27.03515875,8.40234,26.789058750000002L10.9336,24.25780875Q11.5312,23.76562875,12.1289,24.25780875Q12.6211,24.85546875,12.1289,25.45312875L9.84375,27.73827875L9.84375,31.04291875Q9.77344,31.81641875,9,31.88671875Z" fill="#3E5DA6" fill-opacity="1" style="mix-blend-mode:passthrough"/></g></g></g></svg>