<svg xmlns="http://www.w3.org/2000/svg" xmlns:xlink="http://www.w3.org/1999/xlink" fill="none" version="1.1" width="30" height="24" viewBox="0 0 30 24"><defs><clipPath id="master_svg0_8_028952"><rect x="0" y="0" width="30" height="24" rx="0"/></clipPath></defs><g clip-path="url(#master_svg0_8_028952)"><g transform="matrix(1,0,0,-1,0,46.03125)"><g><path d="M3,38.015625Q3.04688,40.546825,4.73438,42.281225Q6.46875,43.968725,9,44.015625L21,44.015625Q23.5312,43.968725,25.2656,42.281225Q26.9531,40.546825,27,38.015625L27,36.421825Q25.6875,36.140625,24.8438,35.156225Q24.0469,34.171825,24,32.765625L24,30.515625L6,30.515625L6,32.765625Q5.95312,34.171825,5.15625,35.156225Q4.3125,36.140625,3,36.421825L3,38.015625ZM25.5,32.765625Q25.5938,34.312525,27,34.875025Q27.375,35.015625,27.75,35.015625Q28.6875,34.968725,29.3438,34.359425Q29.9531,33.703125,30,32.765625L30,24.515625Q30,23.859375,29.5781,23.4375Q29.1562,23.015625,28.5,23.015625L27,23.015625Q26.3438,23.015625,25.9219,23.4375Q25.5,23.859375,25.5,24.515625L4.5,24.515625Q4.5,23.859375,4.07812,23.4375Q3.65625,23.015625,3,23.015625L1.5,23.015625Q0.84375,23.015625,0.421875,23.4375Q0,23.859375,0,24.515625L0,32.765625Q0.046875,33.703125,0.65625,34.359425Q1.3125,34.968725,2.25,35.015625Q2.625,35.015625,3,34.875025Q4.40625,34.312525,4.5,32.765625L4.5,30.515625L4.5,29.015625L6,29.015625L25.5,29.015625L25.5,30.515625L25.5,32.765625Z" fill="#3E5DA6" fill-opacity="1" style="mix-blend-mode:passthrough"/></g></g></g></svg>