<svg xmlns="http://www.w3.org/2000/svg" xmlns:xlink="http://www.w3.org/1999/xlink" fill="none" version="1.1" width="22.59375" height="24" viewBox="0 0 22.59375 24"><defs><clipPath id="master_svg0_8_029095"><rect x="0" y="0" width="22.59375" height="24" rx="0"/></clipPath></defs><g clip-path="url(#master_svg0_8_029095)"><g transform="matrix(1,0,0,-1,0,48.75)"><g><path d="M11.296907904148101,48.2344Q11.625007904148102,48.2344,11.906207904148102,48.0938L20.7656079041481,44.3438Q21.562507904148102,44.0156,22.0312079041481,43.3125Q22.546907904148103,42.6094,22.546907904148103,41.6719Q22.5937079041481,39.2812,21.750007904148102,36.0469Q20.9062079041481,32.8125,18.7031079041481,29.76562Q16.546907904148103,26.67188,12.515607904148101,24.65625Q11.296907904148101,24.09375,10.078107904148101,24.65625Q6.046877904148102,26.67188,3.890627904148102,29.76562Q1.6874979041481017,32.8125,0.8437499041481018,36.0469Q4.148101806489279e-9,39.2812,0.046875004148101806,41.6719Q0.046875004148101806,42.6094,0.5624999041481018,43.3125Q1.0312499041481018,44.0156,1.8281279041481018,44.3438L10.687507904148102,48.0938Q10.968707904148102,48.2344,11.296907904148101,48.2344ZM11.296907904148101,45.0938L11.296907904148101,27.375L11.296907904148101,45.0938L11.296907904148101,27.375Q14.484407904148101,29.01562,16.312507904148102,31.54688Q18.0937079041481,34.07812,18.8437079041481,36.75Q19.546907904148103,39.4688,19.546907904148103,41.625L11.296907904148101,45.0938Z" fill="#3E5DA6" fill-opacity="1" style="mix-blend-mode:passthrough"/></g></g></g></svg>