<svg xmlns="http://www.w3.org/2000/svg" xmlns:xlink="http://www.w3.org/1999/xlink" fill="none" version="1.1" width="21" height="24" viewBox="0 0 21 24"><defs><clipPath id="master_svg0_8_029035"><rect x="0" y="0" width="21" height="24" rx="0"/></clipPath></defs><g clip-path="url(#master_svg0_8_029035)"><g transform="matrix(1,0,0,-1,0,49.03125)"><g><path d="M7.5,43.265625Q7.54688,44.531225,8.39062,45.375025Q9.23438,46.218725,10.5,46.265625Q11.7656,46.218725,12.6094,45.375025Q13.4531,44.531225,13.5,43.265625L13.5,41.015625L7.5,41.015625L7.5,43.265625ZM5.25,41.015625L2.25,41.015625L5.25,41.015625L2.25,41.015625Q1.3125,40.968725,0.65625,40.359425Q0.046875,39.703125,0,38.765625L0,29.015625Q0.046875,27.093745,1.3125,25.828125Q2.57812,24.5625,4.5,24.515625L16.5,24.515625Q18.4219,24.5625,19.6875,25.828125Q20.9531,27.093745,21,29.015625L21,38.765625Q20.9531,39.703125,20.3438,40.359425Q19.6875,40.968725,18.75,41.015625L15.75,41.015625L15.75,43.265625Q15.7031,45.515625,14.2031,46.968725Q12.75,48.468725,10.5,48.515625Q8.25,48.468725,6.79688,46.968725Q5.29688,45.515625,5.25,43.265625L5.25,41.015625ZM6.375,38.765625Q7.40625,38.671825,7.5,37.640625Q7.40625,36.609425,6.375,36.515625Q5.34375,36.609425,5.25,37.640625Q5.34375,38.671825,6.375,38.765625ZM13.5,37.640625Q13.5938,38.671825,14.625,38.765625Q15.6562,38.671825,15.75,37.640625Q15.6562,36.609425,14.625,36.515625Q13.5938,36.609425,13.5,37.640625Z" fill="#3E5DA6" fill-opacity="1" style="mix-blend-mode:passthrough"/></g></g></g></svg>