<svg xmlns="http://www.w3.org/2000/svg" xmlns:xlink="http://www.w3.org/1999/xlink" fill="none" version="1.1" width="16" height="16" viewBox="0 0 16 16"><defs><clipPath id="master_svg0_8_027581"><rect x="0" y="0" width="16" height="16" rx="0"/></clipPath></defs><g clip-path="url(#master_svg0_8_027581)"><g transform="matrix(1,0,0,-1,0,32.6875)"><g><path d="M14,24.34375Q14,25.96875,13.1875,27.34375Q12.4062,28.71875,11,29.53125Q9.59375,30.34375,8,30.34375Q6.40625,30.34375,5,29.53125Q3.59375,28.71875,2.8125,27.34375Q2,25.96875,2,24.34375Q2,22.71875,2.8125,21.34375Q3.59375,19.96875,5,19.15625Q6.40625,18.34375,8,18.34375Q9.59375,18.34375,11,19.15625Q12.4062,19.96875,13.1875,21.34375Q14,22.71875,14,24.34375ZM0,24.34375Q0.03125,26.53125,1.0625,28.34375Q2.125,30.15625,4,31.28125Q5.90625,32.34375,8,32.34375Q10.0938,32.34375,12,31.28125Q13.875,30.15625,14.9375,28.34375Q15.9688,26.53125,16,24.34375Q15.9688,22.15625,14.9375,20.34375Q13.875,18.53125,12,17.40625Q10.0938,16.34375,8,16.34375Q5.90625,16.34375,4,17.40625Q2.125,18.53125,1.0625,20.34375Q0.03125,22.15625,0,24.34375ZM8,21.84375Q9.40625,21.875,10.1562,23.09375Q10.8438,24.34375,10.1562,25.59375Q9.40625,26.81255,8,26.84375Q6.59375,26.81255,5.84375,25.59375Q5.15625,24.34375,5.84375,23.09375Q6.59375,21.875,8,21.84375ZM8,28.84375Q9.21875,28.84375,10.25,28.24995Q11.2812,27.65625,11.9062,26.59375Q12.5,25.53125,12.5,24.34375Q12.5,23.15625,11.9062,22.09375Q11.2812,21.03125,10.25,20.4375Q9.21875,19.84375,8,19.84375Q6.78125,19.84375,5.75,20.4375Q4.71875,21.03125,4.09375,22.09375Q3.5,23.15625,3.5,24.34375Q3.5,25.53125,4.09375,26.59375Q4.71875,27.65625,5.75,28.24995Q6.78125,28.84375,8,28.84375ZM7,24.34375Q7,24.78125,7.28125,25.0625Q7.5625,25.34375,8,25.34375Q8.4375,25.34375,8.71875,25.0625Q9,24.78125,9,24.34375Q9,23.90625,8.71875,23.625Q8.4375,23.34375,8,23.34375Q7.5625,23.34375,7.28125,23.625Q7,23.90625,7,24.34375Z" fill="#3E5DA6" fill-opacity="1" style="mix-blend-mode:passthrough"/></g></g></g></svg>