<svg xmlns="http://www.w3.org/2000/svg" xmlns:xlink="http://www.w3.org/1999/xlink" fill="none" version="1.1" width="27" height="24" viewBox="0 0 27 24"><defs><clipPath id="master_svg0_8_029158"><rect x="0" y="0" width="27" height="24" rx="0"/></clipPath></defs><g clip-path="url(#master_svg0_8_029158)"><g transform="matrix(1,0,0,-1,0,48.3238525390625)"><g><path d="M19.125,42.18322626953125Q19.0781,40.87072626953125,18.1875,39.13632626953125Q17.2969,37.40202626953125,16.125,35.76132626953125Q15,34.16762626953125,14.2031,33.18323626953125Q13.9219,32.85510626953125,13.5,32.85510626953125Q13.0781,32.85510626953125,12.7969,33.18323626953125Q12,34.16762626953125,10.875,35.76132626953125Q9.70312,37.40202626953125,8.8125,39.13632626953125Q7.92188,40.87072626953125,7.875,42.18322626953125Q7.92188,44.57382626953125,9.51562,46.167626269531254Q11.1094,47.76132626953125,13.5,47.80822626953125Q15.8906,47.76132626953125,17.4844,46.167626269531254Q19.0781,44.57382626953125,19.125,42.18322626953125ZM19.5,38.43322626953125Q19.7344,38.90202626953125,19.9688,39.37072626953125Q19.9688,39.41762626953125,19.9688,39.46452626953125Q20.0156,39.51132626953125,20.0156,39.55822626953125L25.4531,41.71452626953125Q26.0625,41.94882626953125,26.4844,41.62072626953125Q26.9531,41.292626269531254,27,40.68322626953125L27,27.980106269531248Q26.9531,27.230106269531248,26.2969,26.948856269531248L19.5,24.23010796953125L19.5,38.43322626953125ZM6.46875,41.33952626953125Q6.65625,40.30822626953125,7.03125,39.37072626953125Q7.26562,38.90202626953125,7.5,38.43322626953125L7.5,26.62073626953125L1.54688,24.23010796953125Q0.9375,24.04260826953125,0.515625,24.37073326953125Q0.046875,24.65198326953125,0,25.30823626953125L0,37.96452626953125Q0.046875,38.71452626953125,0.703125,39.04262626953125L6.46875,41.33952626953125ZM15.375,32.24573626953125Q16.4531,33.55823626953125,18,35.85512626953125L18,24.18323306953125L9,26.761356269531248L9,35.85512626953125Q10.5469,33.55823626953125,11.625,32.24573626953125Q12.4219,31.355106269531248,13.5,31.355106269531248Q14.5781,31.355106269531248,15.375,32.24573626953125ZM13.5,40.68322626953125Q14.5781,40.730126269531254,15.1406,41.62072626953125Q15.6094,42.55822626953125,15.1406,43.49572626953125Q14.5781,44.38632626953125,13.5,44.43322626953125Q12.4219,44.38632626953125,11.8594,43.49572626953125Q11.3906,42.55822626953125,11.8594,41.62072626953125Q12.4219,40.730126269531254,13.5,40.68322626953125Z" fill="#3E5DA6" fill-opacity="1" style="mix-blend-mode:passthrough"/></g></g></g></svg>