<svg xmlns="http://www.w3.org/2000/svg" xmlns:xlink="http://www.w3.org/1999/xlink" fill="none" version="1.1" width="18" height="18" viewBox="0 0 18 18"><defs><clipPath id="master_svg0_12_56372"><rect x="0" y="0" width="18" height="18" rx="0"/></clipPath></defs><g clip-path="url(#master_svg0_12_56372)"><g transform="matrix(1,0,0,-1,0,34.5234375)"><g><path d="M2.25,31.88671875Q2.25,32.37891875,1.93359,32.69531875Q1.61719,33.01171875,1.125,33.01171875Q0.632812,33.01171875,0.316406,32.69531875Q0,32.37891875,0,31.88671875L0,20.07421875Q0.0351562,18.87890875,0.808594,18.07031275Q1.61719,17.29687495,2.8125,17.26171875L16.875,17.26171875Q17.3672,17.26171875,17.6836,17.57812475Q18,17.89453075,18,18.38671875Q18,18.87890875,17.6836,19.19530875Q17.3672,19.51171875,16.875,19.51171875L2.8125,19.51171875Q2.28516,19.54687875,2.25,20.07421875L2.25,31.88671875ZM16.5586,28.82811875Q16.875,29.17971875,16.875,29.63671875Q16.875,30.09371875,16.5586,30.44531875Q16.207,30.76171875,15.75,30.76171875Q15.293,30.76171875,14.9414,30.44531875L11.25,26.71874875L9.24609,28.75781875Q8.89453,29.07421875,8.4375,29.07421875Q7.98047,29.07421875,7.62891,28.75781875L3.69141,24.82030875Q3.375,24.46874875,3.375,24.01171875Q3.375,23.55468875,3.69141,23.20312875Q4.04297,22.88671875,4.5,22.88671875Q4.95703,22.88671875,5.30859,23.20312875L8.4375,26.36718875L10.4414,24.32812875Q10.793,24.01171875,11.25,24.01171875Q11.707,24.01171875,12.0586,24.32812875L16.5586,28.82811875Z" fill="#3E5DA6" fill-opacity="1" style="mix-blend-mode:passthrough"/></g></g></g></svg>