<svg xmlns="http://www.w3.org/2000/svg" xmlns:xlink="http://www.w3.org/1999/xlink" fill="none" version="1.1" width="25.125" height="24" viewBox="0 0 25.125 24"><defs><clipPath id="master_svg0_8_026942"><rect x="0" y="0" width="25.125" height="24" rx="0"/></clipPath></defs><g clip-path="url(#master_svg0_8_026942)"><g transform="matrix(1,0,0,-1,0,49.03594970703125)"><g><path d="M13.921875095367431,47.676574853515625Q13.499975095367432,48.473474853515626,12.562475095367432,48.52027485351563Q11.671875095367431,48.473474853515626,11.203175095367431,47.676574853515625L8.203125095367431,41.489074853515625L1.4531250953674317,40.45777485351562Q0.5625000953674316,40.317174853515624,0.2812500953674316,39.473474853515626Q9.536743164617612e-8,38.58277485351562,0.6562500953674316,37.926574853515625L5.531255095367432,33.09844485351562L4.359375095367431,26.254694853515623Q4.265625095367431,25.364068853515626,4.968755095367432,24.801568853515626Q5.718755095367432,24.285943853515626,6.562505095367432,24.707818853515626L12.562475095367432,27.895314853515625L18.609375095367433,24.707818853515626Q19.40627509536743,24.285943853515626,20.15627509536743,24.801568853515626Q20.90627509536743,25.364068853515626,20.76557509536743,26.254694853515623L19.64057509536743,33.09844485351562L24.51557509536743,37.926574853515625Q25.124975095367432,38.58277485351562,24.89057509536743,39.473474853515626Q24.562475095367432,40.317174853515624,23.671875095367433,40.45777485351562L16.921875095367433,41.489074853515625L13.921875095367431,47.676574853515625Z" fill="#3E5DA6" fill-opacity="1" style="mix-blend-mode:passthrough"/></g></g></g></svg>