<svg xmlns="http://www.w3.org/2000/svg" xmlns:xlink="http://www.w3.org/1999/xlink" fill="none" version="1.1" width="27" height="24" viewBox="0 0 27 24"><defs><clipPath id="master_svg0_8_027475"><rect x="0" y="0" width="27" height="24" rx="0"/></clipPath></defs><g clip-path="url(#master_svg0_8_027475)"><g transform="matrix(1,0,0,-1,0,49.03125)"><g><path d="M18.75,48.515625L8.25,48.515625L18.75,48.515625L8.25,48.515625Q7.3125,48.468725,6.65625,47.859425Q6.04688,47.203125,6.04688,46.265625Q6.04688,45.890625,6.09375,45.515625L1.125,45.515625Q0.09375,45.421825,0,44.390625Q0.046875,41.156225,1.03125,38.812525Q2.0625,36.515625,3.70312,34.968725Q5.25,33.468745,6.98438,32.625005Q8.71875,31.781245,10.1719,31.406245Q10.9688,31.171875,11.4844,30.609375Q12,30.000005,12,29.296875Q12,28.546875,11.4844,28.031245Q10.9688,27.515625,10.2188,27.515625L9,27.515625Q8.34375,27.515625,7.92188,27.093745Q7.5,26.671875,7.5,26.015625Q7.5,25.359375,7.92188,24.9375Q8.34375,24.515625,9,24.515625L18,24.515625Q18.6562,24.515625,19.0781,24.9375Q19.5,25.359375,19.5,26.015625Q19.5,26.671875,19.0781,27.093745Q18.6562,27.515625,18,27.515625L16.7812,27.515625Q16.0312,27.515625,15.5156,28.031245Q15,28.546875,15,29.296875Q15,30.000005,15.5156,30.609375Q16.0312,31.171875,16.8281,31.406245Q18.2812,31.781245,20.0156,32.625005Q21.75,33.468745,23.3438,34.968725Q24.9375,36.515625,25.9688,38.812525Q26.9531,41.156225,27,44.390625Q26.9062,45.421825,25.875,45.515625L20.9062,45.515625Q20.9531,45.890625,20.9531,46.265625Q20.9531,47.203125,20.3438,47.859425Q19.6875,48.468725,18.75,48.515625ZM2.29688,43.265625L6.23438,43.265625L2.29688,43.265625L6.23438,43.265625Q6.5625,40.125025,7.21875,37.921825Q7.875,35.718725,8.67188,34.312505Q6.89062,35.062525,5.25,36.609425Q4.125,37.687525,3.28125,39.328125Q2.48438,40.968725,2.29688,43.265625ZM21.75,36.609425Q20.1094,35.062525,18.3281,34.312505Q19.125,35.718725,19.7812,37.921825Q20.4375,40.125025,20.7656,43.265625L24.7031,43.265625Q24.5156,40.968725,23.7188,39.328125Q22.9219,37.687525,21.75,36.609425Z" fill="#3E5DA6" fill-opacity="1" style="mix-blend-mode:passthrough"/></g></g></g></svg>