<svg xmlns="http://www.w3.org/2000/svg" xmlns:xlink="http://www.w3.org/1999/xlink" fill="none" version="1.1" width="21" height="24" viewBox="0 0 21 24"><defs><clipPath id="master_svg0_8_029234"><rect x="0" y="0" width="21" height="24" rx="0"/></clipPath></defs><g clip-path="url(#master_svg0_8_029234)"><g transform="matrix(1,0,0,-1,0,49.03125)"><g><path d="M4.5,48.515625Q2.57812,48.468725,1.3125,47.203125Q0.046875,45.937525,0,44.015625L0,32.015625Q0.046875,30.281245,1.07812,29.062505Q2.15625,27.843745,3.79688,27.562505L1.64062,25.40625Q1.40625,25.125,1.54688,24.84375Q1.64062,24.5625,2.01562,24.515625L3.89062,24.515625Q4.5,24.515625,4.92188,24.9375L7.5,27.515625L13.5,27.515625L16.0781,24.9375Q16.5,24.515625,17.1094,24.515625L18.9844,24.515625Q19.3594,24.5625,19.4531,24.84375Q19.5938,25.125,19.3594,25.40625L17.2031,27.562505Q18.8438,27.843745,19.9219,29.062505Q20.9531,30.281245,21,32.015625L21,44.015625Q20.9531,45.937525,19.6875,47.203125Q18.4219,48.468725,16.5,48.515625L4.5,48.515625ZM3,42.515625Q3,43.171825,3.42188,43.593725Q3.84375,44.015625,4.5,44.015625L8.25,44.015625Q8.90625,44.015625,9.32812,43.593725Q9.75,43.171825,9.75,42.515625L9.75,38.015625Q9.75,37.359425,9.32812,36.937525Q8.90625,36.515625,8.25,36.515625L4.5,36.515625Q3.84375,36.515625,3.42188,36.937525Q3,37.359425,3,38.015625L3,42.515625ZM12.75,44.015625L16.5,44.015625L12.75,44.015625L16.5,44.015625Q17.1562,44.015625,17.5781,43.593725Q18,43.171825,18,42.515625L18,38.015625Q18,37.359425,17.5781,36.937525Q17.1562,36.515625,16.5,36.515625L12.75,36.515625Q12.0938,36.515625,11.6719,36.937525Q11.25,37.359425,11.25,38.015625L11.25,42.515625Q11.25,43.171825,11.6719,43.593725Q12.0938,44.015625,12.75,44.015625ZM3,32.015625Q3,32.671875,3.42188,33.093745Q3.84375,33.515625,4.5,33.515625Q5.15625,33.515625,5.57812,33.093745Q6,32.671875,6,32.015625Q6,31.359375,5.57812,30.937505Q5.15625,30.515625,4.5,30.515625Q3.84375,30.515625,3.42188,30.937505Q3,31.359375,3,32.015625ZM16.5,33.515625Q17.1562,33.515625,17.5781,33.093745Q18,32.671875,18,32.015625Q18,31.359375,17.5781,30.937505Q17.1562,30.515625,16.5,30.515625Q15.8438,30.515625,15.4219,30.937505Q15,31.359375,15,32.015625Q15,32.671875,15.4219,33.093745Q15.8438,33.515625,16.5,33.515625Z" fill="#3E5DA6" fill-opacity="1" style="mix-blend-mode:passthrough"/></g></g></g></svg>