<svg xmlns="http://www.w3.org/2000/svg" xmlns:xlink="http://www.w3.org/1999/xlink" fill="none" version="1.1" width="18" height="24" viewBox="0 0 18 24"><defs><clipPath id="master_svg0_8_027511"><rect x="0" y="0" width="18" height="24" rx="0"/></clipPath></defs><g clip-path="url(#master_svg0_8_027511)"><g transform="matrix(1,0,0,-1,0,48.9375)"><g><path d="M10.125,25.03125Q11.3906,26.57813,13.2188,29.20313Q15.0469,31.78125,16.5,34.54685Q17.9062,37.31255,18,39.42185Q17.9062,43.26565,15.375,45.79685Q12.8438,48.32815,9,48.42185Q5.15625,48.32815,2.625,45.79685Q0.09375,43.26565,0,39.42185Q0.09375,37.31255,1.5,34.54685Q2.95312,31.78125,4.78125,29.20313Q6.60938,26.57813,7.875,25.03125Q8.34375,24.46875,9,24.46875Q9.65625,24.46875,10.125,25.03125ZM9,42.42185Q10.6875,42.37495,11.5781,40.92185Q12.4219,39.42185,11.5781,37.92185Q10.6875,36.46875,9,36.42185Q7.3125,36.46875,6.42188,37.92185Q5.57812,39.42185,6.42188,40.92185Q7.3125,42.37495,9,42.42185Z" fill="#3E5DA6" fill-opacity="1" style="mix-blend-mode:passthrough"/></g></g></g></svg>