<svg xmlns="http://www.w3.org/2000/svg" xmlns:xlink="http://www.w3.org/1999/xlink" fill="none" version="1.1" width="20.9375" height="20" viewBox="0 0 20.9375 20"><defs><clipPath id="master_svg0_8_027258"><rect x="0" y="0" width="20.9375" height="20" rx="0"/></clipPath></defs><g clip-path="url(#master_svg0_8_027258)"><g transform="matrix(1,0,0,-1,0,40.86328125)"><g><path d="M11.6015625,39.730440625Q11.2499625,40.394540625000005,10.4687625,40.433640624999995Q9.7265625,40.394540625000005,9.3359425,39.730440625L6.8359425,34.574240625L1.2109425,33.714840625Q0.4687495,33.597640625,0.234375,32.894540625Q-4.999999999866223e-7,32.152340625,0.5468744999999999,31.605440625L4.6093725,27.582030625L3.6328125,21.878910625Q3.5546825,21.136718625,4.1406225,20.667968625Q4.7656225,20.238281625,5.4687525,20.589843625L10.4687625,23.246090625L15.5078625,20.589843625Q16.1718625,20.238281625,16.7968625,20.667968625Q17.4218625,21.136718625,17.3046625,21.878910625L16.3671625,27.582030625L20.4296625,31.605440625Q20.9374625,32.152340625,20.7421625,32.894540625Q20.4687625,33.597640625,19.7265625,33.714840625L14.1015625,34.574240625L11.6015625,39.730440625Z" fill="#FFFFFF" fill-opacity="1" style="mix-blend-mode:passthrough"/></g></g></g></svg>