<svg xmlns="http://www.w3.org/2000/svg" xmlns:xlink="http://www.w3.org/1999/xlink" fill="none" version="1.1" width="20.25" height="18" viewBox="0 0 20.25 18"><defs><clipPath id="master_svg0_12_56703"><rect x="0" y="0" width="20.25" height="18" rx="0"/></clipPath></defs><g clip-path="url(#master_svg0_12_56703)"><g transform="matrix(1,0,0,-1,0,34.52342224121094)"><g><path d="M10.10731417425871,33.01171112060547Q7.981274174258709,32.976511120605466,6.308304174258709,32.16801112060547Q4.635324174258709,31.35941112060547,3.380584174258709,30.16401112060547Q2.160714174258709,29.00391112060547,1.359074174258709,27.773411120605466Q0.557439174258709,26.54296112060547,0.17404837425870895,25.55859112060547Q-0.00022002574129104113,25.13671112060547,0.17404837425870895,24.71484112060547Q0.557439174258709,23.73046112060547,1.359074174258709,22.49999112060547Q2.160714174258709,21.269521120605468,3.380584174258709,20.10937112060547Q4.635324174258709,18.914051120605468,6.308304174258709,18.10546112060547Q7.981274174258709,17.296867320605468,10.10731417425871,17.26171112060547Q12.233414174258709,17.296867320605468,13.906414174258709,18.10546112060547Q15.579414174258709,18.914051120605468,16.83411417425871,20.10937112060547Q18.054014174258707,21.269521120605468,18.855614174258708,22.49999112060547Q19.65731417425871,23.73046112060547,20.07551417425871,24.71484112060547Q20.24981417425871,25.13671112060547,20.07551417425871,25.55859112060547Q19.65731417425871,26.54296112060547,18.855614174258708,27.773411120605466Q18.054014174258707,29.00391112060547,16.83411417425871,30.16401112060547Q15.579414174258709,31.35941112060547,13.906414174258709,32.16801112060547Q12.233414174258709,32.976511120605466,10.10731417425871,33.01171112060547ZM5.088424174258709,25.13671112060547Q5.088424174258709,26.50780112060547,5.750644174258709,27.667911120605467Q6.412864174258709,28.82811112060547,7.597884174258709,29.53121112060547Q8.782914174258709,30.19921112060547,10.10731417425871,30.19921112060547Q11.43181417425871,30.19921112060547,12.616814174258709,29.53121112060547Q13.801814174258709,28.82811112060547,14.46411417425871,27.667911120605467Q15.12631417425871,26.50780112060547,15.12631417425871,25.13671112060547Q15.12631417425871,23.76562112060547,14.46411417425871,22.60546112060547Q13.801814174258709,21.445301120605468,12.616814174258709,20.74218112060547Q11.43181417425871,20.07421112060547,10.10731417425871,20.07421112060547Q8.782914174258709,20.07421112060547,7.597884174258709,20.74218112060547Q6.412864174258709,21.445301120605468,5.750644174258709,22.60546112060547Q5.088424174258709,23.76562112060547,5.088424174258709,25.13671112060547ZM10.10731417425871,27.38671112060547Q10.07250417425871,26.43749112060547,9.445134174258708,25.80468112060547Q8.81776417425871,25.17187112060547,7.876714174258709,25.13671112060547Q7.493324174258709,25.13671112060547,7.179644174258709,25.24218112060547Q6.831104174258709,25.31249112060547,6.761394174258709,24.99609112060547Q6.761394174258709,24.644521120605468,6.865954174258709,24.257801120605468Q7.284204174258709,22.88671112060547,8.434374174258709,22.21874112060547Q9.584544174258708,21.550771120605468,10.978714174258709,21.86718112060547Q12.338014174258708,22.289051120605468,13.000214174258709,23.44921112060547Q13.662414174258709,24.60937112060547,13.348714174258708,26.015621120605466Q13.03501417425871,27.10546112060547,12.19861417425871,27.773411120605466Q11.327214174258708,28.44141112060547,10.24681417425871,28.51171112060547Q9.93308417425871,28.44141112060547,10.002794174258709,28.089811120605468Q10.10731417425871,27.773411120605466,10.10731417425871,27.38671112060547Z" fill="#3E5DA6" fill-opacity="1" style="mix-blend-mode:passthrough"/></g></g></g></svg>