<svg xmlns="http://www.w3.org/2000/svg" xmlns:xlink="http://www.w3.org/1999/xlink" fill="none" version="1.1" width="20" height="16" viewBox="0 0 20 16"><defs><clipPath id="master_svg0_8_028753"><rect x="0" y="0" width="20" height="16" rx="0"/></clipPath></defs><g clip-path="url(#master_svg0_8_028753)"><g transform="matrix(1,0,0,-1,0,32.6875)"><g><path d="M9.22136375,32.31255Q9.47058375,32.18745,9.53289375,31.93755L9.96903375,29.28125L12.61699375,28.84375Q12.86619375,28.78125,12.99079375,28.53125Q13.08429375,28.28125,12.92849375,28.06255L11.74469375,26.34375Q11.62009375,26.34375,11.52669375,26.34375Q10.43629375,26.34375,9.53289375,25.8125L9.53289375,25.84375Q9.50174375,27.12495,8.66062375,27.96875Q7.81949375,28.81255,6.54223375,28.84375Q5.26498375,28.81255,4.42385375,27.96875Q3.58273375,27.12495,3.55158375,25.84375Q3.58273375,24.5625,4.42385375,23.71875Q5.26498375,22.875,6.54223375,22.84375Q6.91607375,22.84375,7.25875375,22.9375Q6.41762375,22.5,5.82572375,21.71875Q5.26498375,20.96875,5.10921375,19.96875L4.33040375,19.4375Q4.11233375,19.28125,3.86311375,19.375Q3.61389375,19.5,3.55158375,19.78125L3.11544375,22.40625L0.46747175,22.84375Q0.21825075,22.90625,0.09364045,23.15625Q0.0001825499999999966,23.40625,0.15594575,23.625L1.71357375,25.84375L0.15594575,28.06255Q0.0001825499999999966,28.28125,0.09364045,28.53125Q0.21825075,28.78125,0.46747175,28.84375L3.11544375,29.28125L3.55158375,31.93755Q3.61389375,32.18745,3.86311375,32.31255Q4.11233375,32.40625,4.33040375,32.24995L6.54223375,30.68745L8.75407375,32.24995Q8.97214375,32.40625,9.22136375,32.31255ZM4.54846375,25.84375Q4.57962375,26.96875,5.54535375,27.56255Q6.54223375,28.12495,7.53912375,27.56255Q8.50485375,26.96875,8.53600375,25.84375Q8.50485375,24.71875,7.53912375,24.125Q6.54223375,23.5625,5.54535375,24.125Q4.57962375,24.71875,4.54846375,25.84375ZM20.00019375,18.84375Q19.96899375,17.78125,19.25249375,17.09375Q18.56719375,16.375,17.50799375,16.34375L9.03445375,16.34375Q7.75719375,16.375,6.91607375,17.21875Q6.07495375,18.0625,6.04379375,19.34375Q6.07495375,20.5,6.76030375,21.28125Q7.44566375,22.09375,8.53600375,22.3125L8.53600375,22.34375Q8.56716375,23.625,9.40828375,24.46875Q10.24939375,25.3125,11.52669375,25.34375Q12.33659375,25.34375,13.02199375,24.9375Q13.67619375,24.5625,14.08119375,23.90625Q14.70419375,24.34375,15.51419375,24.34375Q16.57339375,24.3125,17.28989375,23.625Q17.97529375,22.90625,18.00639375,21.84375Q18.00639375,21.5625,17.94409375,21.3125Q18.84749375,21.125,19.40829375,20.46875Q19.96899375,19.78125,20.00019375,18.84375Z" fill="#3E5DA6" fill-opacity="1" style="mix-blend-mode:passthrough"/></g></g></g></svg>