<svg xmlns="http://www.w3.org/2000/svg" xmlns:xlink="http://www.w3.org/1999/xlink" fill="none" version="1.1" width="14" height="24" viewBox="0 0 14 24"><defs><clipPath id="master_svg0_8_029382"><rect x="0" y="3" width="14" height="16" rx="0"/></clipPath></defs><g><rect x="0" y="0" width="14" height="24" rx="0" fill="#000000" fill-opacity="0" style="mix-blend-mode:passthrough"/><g clip-path="url(#master_svg0_8_029382)"><g transform="matrix(1,0,0,-1,0,36.75)"><g><path d="M11.9062,30.3438Q9.84375,32.3438,7,32.375Q5.0625,32.3438,3.5,31.4375Q1.9375,30.5,1,28.9375Q0.09375,27.375,0.0625,25.4375Q0.0625,23.5625,0.96875,21.96875L0,18.375L3.6875,19.34375Q5.21875,18.5,7,18.5Q8.9375,18.53125,10.5,19.4375Q12.0938,20.375,13.0312,21.9375Q13.9688,23.5,14,25.4375Q14,26.84375,13.4375,28.09375Q12.9062,29.3438,11.9062,30.3438ZM7,19.65625Q5.40625,19.6875,4.0625,20.46875L3.84375,20.59375L1.65625,20.03125L2.25,22.15625L2.125,22.375Q1.25,23.78125,1.21875,25.4375Q1.28125,27.875,2.9375,29.5Q4.5625,31.1562,7,31.1875Q9.375,31.1875,11.0625,29.5Q12.7812,27.8125,12.8438,25.4375Q12.75,23,11.0938,21.34375Q9.4375,19.71875,7,19.65625ZM10.1562,23.96875Q10,24.0625,9.5625,24.28125Q9.125,24.46875,8.96875,24.53125Q8.75,24.6875,8.59375,24.46875Q8.46875,24.3125,8.3125,24.09375Q8.125,23.875,8.03125,23.78125Q7.90625,23.59375,7.65625,23.75Q6.90625,24.09375,6.34375,24.53125Q5.78125,24.96875,5.3125,25.8125Q5.1875,26,5.40625,26.1875Q5.5625,26.3125,5.8125,26.75Q5.875,26.90625,5.78125,27.0625Q5.75,27.09375,5.65625,27.375Q5.5625,27.625,5.4375,27.9375Q5.3125,28.1875,5.25,28.34375Q5.0625,28.7188,4.90625,28.625Q4.875,28.625,4.875,28.625Q4.71875,28.625,4.53125,28.625Q4.34375,28.6562,4.0625,28.4375Q4.0625,28.4062,4.03125,28.375Q3.875,28.25,3.6875,27.90625Q3.5,27.5625,3.46875,26.96875Q3.5,26.34375,3.78125,25.8125Q4.0625,25.3125,4.15625,25.1875L4.1875,25.1875Q4.1875,25.15625,4.21875,25.125Q4.375,24.84375,5.15625,24Q5.90625,23.15625,7.125,22.5625Q7.9375,22.21875,8.375,22.125Q8.84375,22.0625,9.21875,22.125Q9.5,22.1875,9.875,22.40625Q10.25,22.625,10.375,22.9375Q10.5938,23.625,10.5,23.78125Q10.4375,23.875,10.25,23.9375Q10.1875,23.96875,10.1562,23.96875Z" fill="#6B7280" fill-opacity="1" style="mix-blend-mode:passthrough"/></g></g></g></g></svg>