<svg xmlns="http://www.w3.org/2000/svg" xmlns:xlink="http://www.w3.org/1999/xlink" fill="none" version="1.1" width="26.8125" height="24" viewBox="0 0 26.8125 24"><defs><clipPath id="master_svg0_8_028851"><rect x="0" y="0" width="26.8125" height="24" rx="0"/></clipPath></defs><g clip-path="url(#master_svg0_8_028851)"><g transform="matrix(1,0,0,-1,0,49.03125)"><g><path d="M13.4062,48.515625Q14.0625,48.515625,14.4844,48.093725Q14.9062,47.671825,14.9062,47.015625L14.9062,46.171825Q19.6406,45.609425,22.875,42.609425Q26.1562,39.609425,26.8125,35.109425Q26.8125,34.546825,26.3906,34.359375Q25.9219,34.125005,25.5,34.500005Q24.9844,35.062525,24.1406,35.437525Q23.2969,35.765625,22.4062,35.765625Q21,35.718725,20.0156,34.921825Q19.0312,34.078125,18.75,32.765625Q18.5625,32.062505,17.9062,32.015625Q17.25,32.062505,17.0625,32.765625Q16.7812,34.078125,15.7969,34.921825Q14.8125,35.718725,13.4062,35.765625Q12,35.718725,11.0156,34.921825Q10.0312,34.078125,9.75,32.765625Q9.5625,32.062505,8.90625,32.015625Q8.25,32.062505,8.0625,32.765625Q7.78125,34.078125,6.79688,34.921825Q5.8125,35.718725,4.40625,35.765625Q3.51562,35.765625,2.67188,35.437525Q1.82812,35.062525,1.3125,34.500005Q0.890625,34.125005,0.421875,34.312505Q0,34.546825,0,35.109425Q0.65625,39.609425,3.9375,42.609425Q7.17188,45.609425,11.9062,46.171825L11.9062,47.015625Q11.9062,47.671825,12.3281,48.093725Q12.75,48.515625,13.4062,48.515625ZM13.4062,34.265625Q14.2969,34.265625,14.9062,33.703125L14.9062,28.312505Q14.8594,26.718745,13.7812,25.640625Q12.7031,24.5625,11.1094,24.515625Q9.98438,24.515625,9.09375,25.078125Q8.20312,25.640625,7.6875,26.625005L7.59375,26.859375Q7.3125,27.421875,7.5,27.984375Q7.6875,28.546875,8.25,28.875005Q8.8125,29.109375,9.375,28.921875Q9.9375,28.734375,10.2656,28.171875L10.3594,27.984375Q10.5938,27.515625,11.1094,27.515625Q11.8594,27.609375,11.9062,28.312505L11.9062,33.703125Q12.5156,34.265625,13.4062,34.265625Z" fill="#3E5DA6" fill-opacity="1" style="mix-blend-mode:passthrough"/></g></g></g></svg>